<svg width="0" height="0" class="hidden">
  <symbol fill="none" xmlns="http://www.w3.org/2000/svg" viewBox="0 0 32 32" id="css">
    <path d="M6 28L4 3H28L26 28L16 31L6 28Z" fill="#1172B8"></path>
    <path d="M26 5H16V29.5L24 27L26 5Z" fill="#33AADD"></path>
    <path d="M19.5 17.5H9.5L9 14L17 11.5H9L8.5 8.5H24L23.5 12L17 14.5H23L22 24L16 26L10 24L9.5 19H12.5L13 21.5L16 22.5L19 21.5L19.5 17.5Z" fill="white"></path>
  </symbol>
  <symbol version="1.1" xmlns="http://www.w3.org/2000/svg" xmlns:xlink="http://www.w3.org/1999/xlink" preserveAspectRatio="xMidYMid" viewBox="0 0 256 256" id="dart">
    <g>
      <path d="M70.534,69.696 L53.988,53.15 L54.058,172.75 L54.256,178.34 C54.338,180.97 54.826,183.938 55.64,187.014 L186.744,233.244 L219.516,218.724 L219.528,218.684 L70.534,69.696" fill="#00D2B8"></path>
      <path d="M55.64,187.014 L55.648,187.022 C55.64,186.968 55.612,186.908 55.612,186.852 C55.612,186.908 55.62,186.96 55.64,187.014 L55.64,187.014 Z M219.516,218.724 L186.744,233.244 L55.648,187.022 C58.152,196.63 63.696,207.43 69.662,213.336 L112.446,255.876 L207.576,256 L219.528,218.684 L219.516,218.724 L219.516,218.724 Z" fill="#55DDCA"></path>
      <path d="M3.034,130.116 C-1.202,134.638 0.902,143.966 7.722,150.838 L37.14,180.5 L55.64,187.014 C54.826,183.938 54.338,180.97 54.256,178.34 L54.058,172.75 L53.988,53.15 L3.034,130.116 Z" fill="#0081C6"></path>
      <path d="M187.82,54.686 C184.744,53.9 181.794,53.414 179.12,53.33 L173.212,53.126 L53.988,53.142 L219.544,218.684 L219.558,218.684 L234.098,185.88 L187.82,54.686" fill="#0079B3"></path>
      <path d="M187.67,54.654 C187.734,54.668 187.784,54.686 187.826,54.692 L187.82,54.686 C187.784,54.668 187.734,54.668 187.67,54.654 L187.67,54.654 Z M214.118,68.732 C208.11,62.674 197.452,57.168 187.826,54.692 L234.098,185.88 L219.558,218.684 L219.544,218.684 L255.076,207.336 L255.152,109.92 L214.118,68.732 L214.118,68.732 Z" fill="#00A4E4"></path>
      <path d="M181.338,36.298 L151.684,6.862 C144.826,0.068 135.494,-2.046 130.984,2.178 L53.988,53.142 L173.212,53.126 L179.12,53.33 C181.794,53.414 184.744,53.9 187.82,54.686 L181.338,36.298 L181.338,36.298 Z" fill="#00D2B8"></path>
    </g>
  </symbol>
  <symbol version="1.1" xmlns="http://www.w3.org/2000/svg" xmlns:xlink="http://www.w3.org/1999/xlink" preserveAspectRatio="xMidYMid" viewBox="0 -181.5 512 512" id="express">
    <g fill="#fff">
      <path d="M3.33224862,115.629027 L3.33224862,58.6475756 L74.4757566,58.6475756 L74.4757566,55.315327 L3.33224862,55.315327 L3.33224862,3.33224862 L78.9742922,3.33224862 L78.9742922,0 L-3.55271368e-15,0 L-3.55271368e-15,118.961276 L79.640742,118.961276 L79.640742,115.629027 L3.33224862,115.629027 L3.33224862,115.629027 Z M143.786528,33.3224862 L114.296128,72.1431826 L85.472177,33.3224862 L81.1402538,33.3224862 L112.296778,74.642369 L78.14123,118.961276 L82.1399284,118.961276 L114.296128,77.1415554 L146.618939,118.961276 L150.78425,118.961276 L116.462089,74.642369 L147.785226,33.3224862 L143.786528,33.3224862 L143.786528,33.3224862 Z M160.780996,148.285063 L160.780996,94.9690856 L161.114221,94.9690856 C163.11358,102.744371 167.056701,108.992275 172.943703,113.712984 C178.830705,118.433693 186.32819,120.794012 195.436381,120.794012 C201.323384,120.794012 206.543854,119.599969 211.09795,117.211845 C215.652046,114.823722 219.456324,111.574812 222.510902,107.465018 C225.565478,103.355224 227.898028,98.5790488 229.508624,93.1363488 C231.119218,87.6936488 231.924504,81.973346 231.924504,75.9752684 C231.924504,69.532889 231.09145,63.5904384 229.425318,58.1477384 C227.759184,52.7050384 225.343328,47.9844 222.177676,43.9856818 C219.012024,39.9869634 215.179976,36.8768958 210.681418,34.6553856 C206.18286,32.4338754 201.101232,31.323137 195.436381,31.323137 C191.104437,31.323137 187.07801,31.9618116 183.35698,33.23918 C179.635951,34.5165484 176.331504,36.3214982 173.443541,38.654084 C170.555577,40.9866696 168.056416,43.7357472 165.945981,46.9013992 C163.835546,50.0670512 162.224976,53.5381088 161.114221,57.3146762 L160.780996,57.3146762 L160.780996,33.3224862 L157.448747,33.3224862 L157.448747,148.285063 L160.780996,148.285063 L160.780996,148.285063 Z M195.436381,117.628376 C184.995284,117.628376 176.609208,114.046245 170.277904,106.881874 C163.9466,99.717504 160.780996,89.415405 160.780996,75.9752684 C160.780996,70.421493 161.558513,65.1454854 163.11357,60.1470876 C164.668627,55.1486896 166.917872,50.7612728 169.861373,46.9847054 C172.804874,43.2081382 176.442543,40.2091444 180.774487,37.9876342 C185.106432,35.766124 189.993681,34.6553856 195.436381,34.6553856 C200.990156,34.6553856 205.849638,35.766124 210.01497,37.9876342 C214.1803,40.2091444 217.62359,43.2359066 220.34494,47.0680118 C223.06629,50.9001168 225.121156,55.2875336 226.5096,60.2303938 C227.898044,65.173254 228.592256,70.421493 228.592256,75.9752684 C228.592256,80.9736664 227.95358,85.9442208 226.676212,90.887081 C225.398844,95.8299412 223.427284,100.272895 220.76147,104.216075 C218.095658,108.159256 214.680138,111.380398 210.514806,113.879596 C206.349474,116.378795 201.323384,117.628376 195.436381,117.628376 L195.436381,117.628376 L195.436381,117.628376 Z M250.251872,118.961276 L250.251872,70.4770582 C250.251872,65.8118868 250.918314,61.2578592 252.25122,56.814839 C253.584126,52.3718186 255.638992,48.4564656 258.41588,45.0686626 C261.192768,41.6808596 264.719362,39.0150872 268.99577,37.0712658 C273.272176,35.1274444 278.353806,34.322159 284.240808,34.6553856 L284.240808,31.323137 C279.131334,31.2120614 274.660612,31.7674308 270.828506,32.9892614 C266.996402,34.211092 263.691954,35.8771996 260.915066,37.9876342 C258.138178,40.098069 255.916702,42.569462 254.25057,45.4018874 C252.584436,48.2343128 251.362624,51.2610752 250.585096,54.4822648 L250.251872,54.4822648 L250.251872,33.3224862 L246.919622,33.3224862 L246.919622,118.961276 L250.251872,118.961276 L250.251872,118.961276 Z M288.406118,76.8083306 L360.049464,76.8083306 C360.271614,70.9213286 359.688476,65.2565626 358.300032,59.8138626 C356.911588,54.3711628 354.690112,49.5394506 351.635536,45.3185812 C348.580958,41.0977118 344.637838,37.7099596 339.806052,35.155223 C334.974268,32.6004862 329.226196,31.323137 322.561666,31.323137 C317.78542,31.323137 313.120318,32.3228016 308.566222,34.3221608 C304.012126,36.32152 300.013468,39.2372084 296.570126,43.0693134 C293.126786,46.9014184 290.34994,51.5942884 288.239506,57.1480638 C286.12907,62.7018392 285.07387,69.0330484 285.07387,76.1418808 C285.07387,82.473185 285.79585,88.387867 287.23983,93.8861048 C288.683812,99.3843424 290.90529,104.160518 293.904328,108.214774 C296.903366,112.26903 300.763182,115.406866 305.483892,117.628376 C310.204602,119.849886 315.897136,120.905088 322.561666,120.794012 C332.33631,120.794012 340.555776,118.044935 347.220306,112.546697 C353.884836,107.048459 357.827958,99.3010588 359.049788,89.304263 L355.71754,89.304263 C354.273558,98.7456812 350.580352,105.826639 344.637814,110.547348 C338.695274,115.268057 331.225558,117.628376 322.228442,117.628376 C316.119288,117.628376 310.954354,116.573175 306.733486,114.46274 C302.512616,112.352305 299.069326,109.464385 296.403514,105.798894 C293.737702,102.133402 291.766142,97.8292904 290.488774,92.8864302 C289.211404,87.94357 288.517194,82.5842572 288.406118,76.8083306 L288.406118,76.8083306 L288.406118,76.8083306 Z M356.717214,73.476082 L288.406118,73.476082 C288.739344,67.4780046 289.850082,62.0909232 291.738366,57.3146762 C293.62665,52.5384294 296.098044,48.4564656 299.15262,45.0686626 C302.207196,41.6808596 305.76156,39.0983926 309.815816,37.3211846 C313.870072,35.5439764 318.22972,34.6553856 322.89489,34.6553856 C328.448666,34.6553856 333.335916,35.6828186 337.556784,37.7377156 C341.777654,39.7926126 345.304248,42.597227 348.136674,46.1516434 C350.9691,49.7060596 353.107272,53.8435602 354.551252,58.5642694 C355.995234,63.2849786 356.717214,68.255533 356.717214,73.476082 L356.717214,73.476082 L356.717214,73.476082 Z M429.193622,58.6475756 L432.52587,58.6475756 C432.52587,49.0950818 429.749024,42.1529666 424.195248,37.8210218 C418.641474,33.489077 411.088452,31.323137 401.535958,31.323137 C396.204334,31.323137 391.705844,31.98958 388.040352,33.3224862 C384.37486,34.6553922 381.375866,36.3770368 379.04328,38.4874716 C376.710694,40.5979062 375.044586,42.930457 374.044908,45.4851936 C373.045228,48.0399304 372.545396,50.4835548 372.545396,52.8161406 C372.545396,57.481312 373.37845,61.2022858 375.044582,63.9791734 C376.710714,66.7560612 379.32095,68.9220012 382.875366,70.4770582 C385.319028,71.5878134 388.095874,72.587478 391.205988,73.476082 C394.316102,74.364686 397.926002,75.3088138 402.035796,76.3084934 C405.701288,77.1970974 409.311188,78.0856882 412.865604,78.9742922 C416.42002,79.8628962 419.557856,81.0569402 422.279206,82.5564594 C425.000556,84.0559788 427.222032,85.9720026 428.943704,88.3045884 C430.665374,90.637174 431.526196,93.6917048 431.526196,97.468272 C431.526196,101.133764 430.665374,104.243831 428.943704,106.798568 C427.222032,109.353305 425.028324,111.435939 422.362512,113.046534 C419.6967,114.657129 416.725474,115.823405 413.448748,116.545395 C410.17202,117.267386 406.978646,117.628376 403.868532,117.628376 C393.760662,117.628376 386.01326,115.379131 380.626098,110.880573 C375.238936,106.382015 372.545396,99.3010572 372.545396,89.6374878 L369.213146,89.6374878 C369.213146,100.411812 372.128836,108.298055 377.9603,113.296453 C383.791764,118.294851 392.427754,120.794012 403.868532,120.794012 C407.534024,120.794012 411.22723,120.377485 414.94826,119.544419 C418.669288,118.711353 422.001504,117.350698 424.945004,115.462415 C427.888506,113.574131 430.276594,111.130506 432.10934,108.131468 C433.942086,105.132429 434.858444,101.466992 434.858444,97.1350472 C434.858444,93.0252534 434.05316,89.693038 432.442564,87.1383014 C430.83197,84.5835646 428.721566,82.4731616 426.111292,80.807029 C423.501018,79.1408964 420.55756,77.8357786 417.280834,76.8916368 C414.004106,75.947495 410.699658,75.0311358 407.367394,74.1425318 C402.702222,72.9207012 398.620258,71.8654996 395.12138,70.9768956 C391.622502,70.0882914 388.373592,69.03309 385.374552,67.8112594 C382.48659,66.5894288 380.181808,64.8400158 378.460136,62.5629678 C376.738466,60.2859198 375.877644,57.03701 375.877644,52.8161406 C375.877644,52.038612 376.099792,50.650189 376.544094,48.6508298 C376.988396,46.6514706 378.043598,44.624373 379.70973,42.569476 C381.375862,40.5145792 383.93056,38.6818608 387.373902,37.0712658 C390.817242,35.460671 395.53788,34.6553856 401.535958,34.6553856 C405.645752,34.6553856 409.394494,35.099681 412.782298,35.988285 C416.1701,36.8768892 419.085788,38.2930806 421.52945,40.236902 C423.973112,42.1807234 425.861366,44.6521164 427.194272,47.6511552 C428.527178,50.650194 429.193622,54.3156308 429.193622,58.6475756 L429.193622,58.6475756 L429.193622,58.6475756 Z M506.335178,58.6475756 L509.667426,58.6475756 C509.667426,49.0950818 506.89058,42.1529666 501.336804,37.8210218 C495.783028,33.489077 488.230008,31.323137 478.677514,31.323137 C473.34589,31.323137 468.847398,31.98958 465.181906,33.3224862 C461.516416,34.6553922 458.517422,36.3770368 456.184836,38.4874716 C453.85225,40.5979062 452.186142,42.930457 451.186462,45.4851936 C450.186784,48.0399304 449.68695,50.4835548 449.68695,52.8161406 C449.68695,57.481312 450.520004,61.2022858 452.186138,63.9791734 C453.85227,66.7560612 456.462506,68.9220012 460.016922,70.4770582 C462.460582,71.5878134 465.237428,72.587478 468.347544,73.476082 C471.457658,74.364686 475.067558,75.3088138 479.177352,76.3084934 C482.842842,77.1970974 486.452742,78.0856882 490.00716,78.9742922 C493.561576,79.8628962 496.699412,81.0569402 499.420762,82.5564594 C502.142112,84.0559788 504.363588,85.9720026 506.085258,88.3045884 C507.80693,90.637174 508.667752,93.6917048 508.667752,97.468272 C508.667752,101.133764 507.80693,104.243831 506.085258,106.798568 C504.363588,109.353305 502.16988,111.435939 499.504068,113.046534 C496.838256,114.657129 493.86703,115.823405 490.590302,116.545395 C487.313576,117.267386 484.120202,117.628376 481.010088,117.628376 C470.902216,117.628376 463.154816,115.379131 457.767654,110.880573 C452.380492,106.382015 449.68695,99.3010572 449.68695,89.6374878 L446.354702,89.6374878 C446.354702,100.411812 449.27039,108.298055 455.101854,113.296453 C460.93332,118.294851 469.56931,120.794012 481.010088,120.794012 C484.67558,120.794012 488.368784,120.377485 492.089814,119.544419 C495.810844,118.711353 499.14306,117.350698 502.08656,115.462415 C505.030062,113.574131 507.418148,111.130506 509.250894,108.131468 C511.08364,105.132429 512,101.466992 512,97.1350472 C512,93.0252534 511.194714,89.693038 509.58412,87.1383014 C507.973524,84.5835646 505.863122,82.4731616 503.252848,80.807029 C500.642572,79.1408964 497.699116,77.8357786 494.422388,76.8916368 C491.145662,75.947495 487.841214,75.0311358 484.508948,74.1425318 C479.843778,72.9207012 475.761814,71.8654996 472.262936,70.9768956 C468.764056,70.0882914 465.515146,69.03309 462.516108,67.8112594 C459.628144,66.5894288 457.323362,64.8400158 455.601692,62.5629678 C453.880022,60.2859198 453.0192,57.03701 453.0192,52.8161406 C453.0192,52.038612 453.241348,50.650189 453.68565,48.6508298 C454.129952,46.6514706 455.185152,44.624373 456.851286,42.569476 C458.517418,40.5145792 461.072116,38.6818608 464.515458,37.0712658 C467.958798,35.460671 472.679436,34.6553856 478.677514,34.6553856 C482.787308,34.6553856 486.53605,35.099681 489.923852,35.988285 C493.311656,36.8768892 496.227344,38.2930806 498.671006,40.236902 C501.114666,42.1807234 503.002922,44.6521164 504.335828,47.6511552 C505.668734,50.650194 506.335178,54.3156308 506.335178,58.6475756 L506.335178,58.6475756 L506.335178,58.6475756 Z" fill="#fff"></path>
    </g>
  </symbol>
  <symbol version="1.1" xmlns="http://www.w3.org/2000/svg" xmlns:xlink="http://www.w3.org/1999/xlink" preserveAspectRatio="xMidYMid" viewBox="-30.5 0 317 317" id="flutter">
    <defs>
      <linearGradient x1="3.9517088%" y1="26.9930287%" x2="75.8970734%" y2="52.9192657%" id="linearGradient-1">
        <stop stop-color="#000000" offset="0%"></stop>
        <stop stop-color="#000000" stop-opacity="0" offset="100%"></stop>
      </linearGradient>
    </defs>
    <g>
      <polygon fill="#47C5FB" points="157.665785 0.000549356223 0.000549356223 157.665785 48.8009614 206.466197 255.267708 0.000549356223"></polygon>
      <polygon fill="#47C5FB" points="156.567183 145.396793 72.1487107 229.815265 121.132608 279.530905 169.842925 230.820587 255.267818 145.396793"></polygon>
      <polygon fill="#00569E" points="121.133047 279.531124 158.214592 316.61267 255.267159 316.61267 169.842266 230.820807"></polygon>
      <polygon fill="#00B5F8" points="71.5995742 230.364072 120.401085 181.562561 169.842046 230.821136 121.132827 279.531454"></polygon>
      <polygon fill-opacity="0.8" fill="url(#linearGradient-1)" points="121.132827 279.531454 161.692896 266.072227 165.721875 234.941308"></polygon>
    </g>
  </symbol>
  <symbol version="1.1" xmlns="http://www.w3.org/2000/svg" xmlns:xlink="http://www.w3.org/1999/xlink" viewBox="0 0 20 20" id="github">
   
    <defs></defs>
    <g id="Page-1" stroke="none" stroke-width="1" fill="none" fill-rule="evenodd">
      <g id="Dribbble-Light-Preview" transform="translate(-140.000000, -7559.000000)" fill="#000000">
        <g id="icons" transform="translate(56.000000, 160.000000)">
          <path d="M94,7399 C99.523,7399 104,7403.59 104,7409.253 C104,7413.782 101.138,7417.624 97.167,7418.981 C96.66,7419.082 96.48,7418.762 96.48,7418.489 C96.48,7418.151 96.492,7417.047 96.492,7415.675 C96.492,7414.719 96.172,7414.095 95.813,7413.777 C98.04,7413.523 100.38,7412.656 100.38,7408.718 C100.38,7407.598 99.992,7406.684 99.35,7405.966 C99.454,7405.707 99.797,7404.664 99.252,7403.252 C99.252,7403.252 98.414,7402.977 96.505,7404.303 C95.706,7404.076 94.85,7403.962 94,7403.958 C93.15,7403.962 92.295,7404.076 91.497,7404.303 C89.586,7402.977 88.746,7403.252 88.746,7403.252 C88.203,7404.664 88.546,7405.707 88.649,7405.966 C88.01,7406.684 87.619,7407.598 87.619,7408.718 C87.619,7412.646 89.954,7413.526 92.175,7413.785 C91.889,7414.041 91.63,7414.493 91.54,7415.156 C90.97,7415.418 89.522,7415.871 88.63,7414.304 C88.63,7414.304 88.101,7413.319 87.097,7413.247 C87.097,7413.247 86.122,7413.234 87.029,7413.87 C87.029,7413.87 87.684,7414.185 88.139,7415.37 C88.139,7415.37 88.726,7417.2 91.508,7416.58 C91.513,7417.437 91.522,7418.245 91.522,7418.489 C91.522,7418.76 91.338,7419.077 90.839,7418.982 C86.865,7417.627 84,7413.783 84,7409.253 C84,7403.59 88.478,7399 94,7399" id="github-[#142]"></path>
        </g>
      </g>
    </g>
  </symbol>
  <symbol fill="none" xmlns="http://www.w3.org/2000/svg" viewBox="0 0 32 32" id="git">
    <path d="M2.58536 17.4132C1.80488 16.6327 1.80488 15.3673 2.58536 14.5868L14.5868 2.58536C15.3673 1.80488 16.6327 1.80488 17.4132 2.58536L29.4146 14.5868C30.1951 15.3673 30.1951 16.6327 29.4146 17.4132L17.4132 29.4146C16.6327 30.1951 15.3673 30.1951 14.5868 29.4146L2.58536 17.4132Z" fill="#EE513B"></path>
    <path d="M12.1489 5.06152L10.9336 6.27686L14.0725 9.41577C13.9455 9.68819 13.8746 9.99201 13.8746 10.3124C13.8746 11.222 14.4461 11.9981 15.2496 12.3012V19.9798C14.4461 20.2829 13.8746 21.059 13.8746 21.9686C13.8746 23.1422 14.826 24.0936 15.9996 24.0936C17.1732 24.0936 18.1246 23.1422 18.1246 21.9686C18.1246 21.144 17.6549 20.429 16.9684 20.0768V12.3117L19.9689 15.3122C19.8481 15.5791 19.7809 15.8754 19.7809 16.1874C19.7809 17.361 20.7323 18.3124 21.9059 18.3124C23.0795 18.3124 24.0309 17.361 24.0309 16.1874C24.0309 15.0138 23.0795 14.0624 21.9059 14.0624C21.6778 14.0624 21.4582 14.0983 21.2522 14.1648L18.0297 10.9423C18.0914 10.7433 18.1246 10.5317 18.1246 10.3124C18.1246 9.13878 17.1732 8.18738 15.9996 8.18738C15.7803 8.18738 15.5688 8.22061 15.3697 8.2823L12.1489 5.06152Z" fill="white"></path>
  </symbol>
  <symbol fill="none" xmlns="http://www.w3.org/2000/svg" viewBox="0 0 32 32" id="html">
    <path d="M6 28L4 3H28L26 28L16 31L6 28Z" fill="#E44D26"></path>
    <path d="M26 5H16V29.5L24 27L26 5Z" fill="#F16529"></path>
    <path d="M9.5 17.5L8.5 8H24L23.5 11H11.5L12 14.5H23L22 24L16 26L10 24L9.5 19H12.5L13 21.5L16 22.5L19 21.5L19.5 17.5H9.5Z" fill="white"></path>
  </symbol>
  <symbol xmlns="http://www.w3.org/2000/svg" preserveAspectRatio="xMinYMin meet" viewBox="0 0 256 256" id="javascript">
    <path d="M0 0h256v256H0V0z" fill="#F7DF1E"></path>
    <path d="M67.312 213.932l19.59-11.856c3.78 6.701 7.218 12.371 15.465 12.371 7.905 0 12.89-3.092 12.89-15.12v-81.798h24.057v82.138c0 24.917-14.606 36.259-35.916 36.259-19.245 0-30.416-9.967-36.087-21.996M152.381 211.354l19.588-11.341c5.157 8.421 11.859 14.607 23.715 14.607 9.969 0 16.325-4.984 16.325-11.858 0-8.248-6.53-11.17-17.528-15.98l-6.013-2.58c-17.357-7.387-28.87-16.667-28.87-36.257 0-18.044 13.747-31.792 35.228-31.792 15.294 0 26.292 5.328 34.196 19.247L210.29 147.43c-4.125-7.389-8.591-10.31-15.465-10.31-7.046 0-11.514 4.468-11.514 10.31 0 7.217 4.468 10.14 14.778 14.608l6.014 2.577c20.45 8.765 31.963 17.7 31.963 37.804 0 21.654-17.012 33.51-39.867 33.51-22.339 0-36.774-10.654-43.819-24.574"></path>
  </symbol>
  <symbol version="1.1" xmlns="http://www.w3.org/2000/svg" xmlns:xlink="http://www.w3.org/1999/xlink" viewBox="0 -183 512 512" id="mongodb">
    <defs></defs>
    <g stroke="none" stroke-width="1" fill="none" fill-rule="evenodd">
      <g>
        <path d="M476.713442,60.4626238 C476.252384,60.5550082 475.791324,61.5703742 475.791324,62.1238178 C475.69894,65.8148802 475.606556,75.5972748 475.606556,82.241187 C475.606556,82.425956 475.882846,82.7946306 476.16,82.7946306 C477.54404,82.887015 480.866428,82.9793996 483.726894,82.9793996 C487.69511,82.9793996 490.00213,82.425956 491.29465,81.8725124 C494.616174,80.2113186 496.184984,76.6117772 496.184984,72.6435614 C496.184984,63.6926272 489.909746,60.2778548 480.589274,60.2778548 C479.943446,60.1863338 478.098346,60.1863338 476.713442,60.4626238 L476.713442,60.4626238 L476.713442,60.4626238 Z M500.522738,101.712728 C500.522738,92.5770252 493.785578,87.5010588 481.60464,87.5010588 C481.051196,87.5010588 477.175366,87.4086744 476.252384,87.5934434 C475.97523,87.6858278 475.606556,87.8705968 475.606556,88.1477502 C475.606556,94.699278 475.514172,105.127501 475.791324,109.187238 C475.97523,110.940816 477.26775,113.432607 478.83656,114.170819 C480.49689,115.093801 484.2812,115.277706 486.864512,115.277706 C494.155116,115.277706 500.522738,111.217969 500.522738,101.712728 L500.522738,101.712728 L500.522738,101.712728 Z M457.888592,55.387521 C458.810712,55.387521 461.579656,55.663811 468.68549,55.663811 C475.421786,55.663811 480.774044,55.4799054 487.326434,55.4799054 C495.354388,55.4799054 506.428438,58.3403708 506.428438,70.3365394 C506.428438,76.2431028 502.275454,80.949531 496.830812,83.256553 C496.554522,83.3489374 496.554522,83.532843 496.830812,83.6252274 C504.582474,85.5635748 511.41202,90.3623876 511.41202,99.4057064 C511.41202,108.26512 505.874994,113.893666 497.846178,117.400823 C492.95498,119.523076 486.864512,120.261288 480.681658,120.261288 C475.97523,120.261288 463.333234,119.707845 456.319784,119.892614 C455.581572,119.61546 456.965612,116.293072 457.61144,115.739629 C459.272634,115.647244 460.56429,115.55486 462.317868,115.001416 C464.809658,114.355588 465.085948,113.617376 465.455486,109.833929 C465.640256,106.603926 465.640256,95.1603372 465.640256,87.0399998 C465.640256,75.8735648 465.73264,68.306671 465.640256,64.6156086 C465.547872,61.7551432 464.532506,60.8321618 462.502636,60.2778548 C460.933828,60.0015648 458.349652,59.6320268 456.2274,59.3557368 C455.765476,58.8938144 457.334286,55.7561954 457.888592,55.387521 L457.888592,55.387521 L457.888592,55.387521 Z M404.641456,112.786779 C406.856958,114.539494 411.193848,115.277706 415.069678,115.277706 C420.05326,115.277706 425.03598,114.355588 429.834792,110.017835 C434.72599,105.58856 438.139898,98.7598784 438.139898,87.8705968 C438.139898,77.4423742 434.171682,68.952499 426.051346,63.9697806 C421.437302,61.1084518 415.530738,59.9091802 408.702056,59.9091802 C406.672188,59.9091802 404.73384,60.0015648 403.53457,60.5550082 C403.257416,60.7397772 402.611588,61.5703742 402.611588,62.0314332 C402.426818,63.8773962 402.426818,78.0882022 402.426818,86.3941718 C402.426818,94.9764316 402.426818,106.9726 402.611588,108.356641 C402.611588,109.741545 403.257416,111.863797 404.641456,112.786779 L404.641456,112.786779 L404.641456,112.786779 Z M383.69349,55.387521 C385.447068,55.387521 392.183366,55.663811 395.413368,55.663811 C401.227548,55.663811 405.379668,55.387521 416.361334,55.387521 C425.589422,55.387521 433.341086,57.8793118 438.87811,62.5848768 C445.614408,68.3990554 449.121564,76.4278716 449.121564,86.2094028 C449.121564,100.143919 442.753942,108.172735 436.38632,112.786779 C430.01956,117.493207 421.713592,120.261288 409.902192,120.261288 C403.626954,120.261288 392.830056,120.076519 383.87826,119.984135 L383.785874,119.984135 C383.324816,119.154401 384.524088,115.924398 385.2623,115.832013 C387.661706,115.55486 388.307534,115.462475 389.507668,115.001416 C391.445152,114.263204 391.81469,113.247838 392.091844,109.833929 C392.368134,103.466307 392.27575,95.8070286 392.27575,87.1323844 C392.27575,80.949531 392.368134,68.8601146 392.183366,64.9842832 C391.907076,61.7551432 390.523034,60.9245462 387.75409,60.3702392 C386.37005,60.0939492 384.524088,59.7244114 381.940776,59.4481212 C381.571238,58.8014298 383.232432,55.9409644 383.69349,55.387521 L383.69349,55.387521 L383.69349,55.387521 Z" fill="#8E714E"></path>
        <path d="M272.033456,116.385457 C269.726434,116.108303 268.06524,115.739629 266.034508,114.816647 C265.758218,114.631878 265.296296,113.70976 265.296296,113.340222 C265.111528,110.110219 265.111528,100.882131 265.111528,94.699278 C265.111528,89.7156962 264.281794,85.378806 262.158678,82.3335716 C259.666886,78.8264146 256.068208,76.7965462 251.454164,76.7965462 C247.393564,76.7965462 241.948924,79.5654906 237.427264,83.441322 C237.33488,83.532843 236.596668,84.1795344 236.689052,83.1641684 C236.689052,82.1488026 236.87382,80.118934 236.966206,78.7348936 C237.05859,77.4423742 236.320378,76.7965462 236.320378,76.7965462 C233.366664,78.2729712 225.061558,80.2113186 222.016323,80.4876086 C219.801686,80.949531 219.248242,83.071784 221.555264,83.8099964 L221.647649,83.8099964 C224.138576,84.548209 225.79977,85.378806 227.091426,86.2094028 C228.014408,86.9476154 227.922022,87.9629812 227.922022,88.7935782 C228.014408,95.714644 228.014408,106.326772 227.738118,112.140951 C227.645732,114.447973 226.999904,115.277706 225.338712,115.647244 L225.522616,115.55486 C224.23096,115.832013 223.215594,116.108303 221.646785,116.293072 C221.093342,116.846516 221.093342,119.800229 221.646785,120.446057 C222.662152,120.446057 228.014408,120.168904 232.444546,120.168904 C238.535014,120.168904 241.672634,120.446057 243.241442,120.446057 C243.88727,119.707845 244.07204,116.9389 243.702502,116.293072 C241.948924,116.200688 240.657268,116.016782 239.457996,115.647244 C237.796802,115.277706 237.33488,114.447973 237.242496,112.509625 C237.05859,107.618428 237.05859,97.2834534 237.05859,90.2700032 C237.05859,88.3316558 237.612034,87.4086744 238.165476,86.8552308 C240.28773,85.0101314 243.702502,83.717612 246.747736,83.717612 C249.700586,83.717612 251.638934,84.6405934 253.115358,85.8407284 C255.145228,87.5010588 255.791056,89.9004652 256.068208,91.6540436 C256.529268,95.6222596 256.345362,103.466307 256.345362,110.294988 C256.345362,113.98605 256.068208,114.909032 254.684168,115.370091 C254.03834,115.647244 252.377146,116.016782 250.438798,116.200688 C249.79297,116.846516 249.97774,119.707845 250.438798,120.353673 C253.115358,120.353673 256.252978,120.076519 260.867022,120.076519 C266.587952,120.076519 270.279878,120.353673 271.756302,120.353673 C272.217362,119.800229 272.40213,117.123669 272.032592,116.385457 L272.033456,116.385457 L272.033456,116.385457 Z M297.595466,81.1343 C292.70427,81.1343 289.659034,84.9177468 289.659034,90.8234468 C289.659034,96.821531 292.334732,103.742597 299.902488,103.742597 C301.194144,103.742597 303.59355,103.189153 304.700438,101.897497 C306.454016,100.236303 307.654152,96.9139156 307.654152,93.407622 C307.654152,85.7483438 303.86984,81.1343 297.595466,81.1343 L297.595466,81.1343 L297.595466,81.1343 Z M296.948776,121.922482 C295.103676,121.922482 293.811156,122.475926 292.981422,122.937848 C289.104728,125.428776 287.352012,127.828182 287.352012,130.689511 C287.352012,133.365207 288.366516,135.48746 290.582016,137.333423 C293.257712,139.640445 296.948776,140.748195 301.655204,140.748195 C311.06806,140.748195 315.221044,135.672229 315.221044,130.689511 C315.221044,127.182354 313.467466,124.875332 309.868788,123.583676 C307.284614,122.475926 302.578184,121.922482 296.948776,121.922482 L296.948776,121.922482 L296.948776,121.922482 Z M297.595466,145.915683 C291.966056,145.915683 287.905456,144.715548 284.399162,142.039851 C280.98439,139.455676 279.507966,135.579845 279.507966,132.904148 C279.507966,132.165936 279.692734,130.135204 281.353928,128.290104 C282.368432,127.182354 284.583068,125.060101 289.843804,121.461423 C290.02771,121.369039 290.120094,121.276654 290.120094,121.091885 C290.120094,120.907116 289.935324,120.722347 289.75142,120.630826 C285.413666,118.969632 284.12201,116.293072 283.752472,114.816647 L283.752472,114.631878 C283.66095,114.078435 283.476182,113.524991 284.306778,112.970684 C284.952606,112.509625 285.875588,111.956182 286.89009,111.310354 C288.4589,110.387373 290.120094,109.372007 291.13546,108.54141 C291.320228,108.356641 291.320228,108.172735 291.320228,107.987966 C291.320228,107.803197 291.13546,107.618428 290.95069,107.526907 C284.491548,105.403791 281.261544,100.604978 281.261544,93.407622 C281.261544,88.7011938 283.383798,84.4558244 287.167244,81.780128 C289.75142,79.7493962 296.210562,77.2584686 300.455932,77.2584686 L300.733086,77.2584686 C305.069976,77.3499898 307.469382,78.2729712 310.883292,79.473106 C312.729254,80.118934 314.482832,80.3952242 316.882238,80.3952242 C320.480916,80.3952242 322.049726,79.2883372 323.341382,77.9966812 C323.433766,78.1805866 323.618536,78.6425092 323.71092,79.8417806 C323.803304,81.0419156 323.433766,82.7946306 322.510786,84.08715 C321.772572,85.1016524 320.112242,85.8407284 318.451048,85.8407284 L317.989126,85.8407284 C316.327932,85.6559594 315.58972,85.4711904 315.58972,85.4711904 L315.221044,85.6559594 C315.12866,85.8407284 315.221044,86.024634 315.31343,86.3017874 L315.405814,86.4865564 C315.58972,87.3171532 315.959258,89.8080808 315.959258,90.4547722 C315.959258,98.021666 312.914022,101.34319 309.68402,103.834981 C306.5464,106.142003 302.947722,107.618428 298.887122,107.987966 C298.794738,107.987966 298.426064,107.987966 297.595466,108.080351 C297.133544,108.080351 296.487716,108.172735 296.395332,108.172735 L296.302948,108.172735 C295.564734,108.356641 293.719636,109.279622 293.719636,110.848432 C293.719636,112.232472 294.550232,113.893666 298.517584,114.170819 C299.348182,114.263204 300.178778,114.263204 301.10176,114.355588 C306.361632,114.724263 312.914022,115.186185 315.959258,116.200688 C320.203764,117.769497 322.880324,121.552944 322.880324,126.075467 C322.880324,132.904148 317.989126,139.27177 309.868788,143.239123 C305.900572,144.992701 301.932356,145.915683 297.595466,145.915683 L297.595466,145.915683 L297.595466,145.915683 Z M350.195912,81.595359 C348.257564,81.595359 346.503986,82.056418 345.21233,82.9793996 C341.613652,85.194037 339.76769,89.6241752 339.76769,96.0833186 C339.76769,108.172735 345.858158,116.66261 354.532802,116.66261 C357.116978,116.66261 359.146846,115.924398 360.900424,114.447973 C363.57612,112.232472 364.961024,107.803197 364.961024,101.620344 C364.961024,89.6241752 358.962076,81.595359 350.195912,81.595359 L350.195912,81.595359 L350.195912,81.595359 Z M351.857106,121.091885 C336.169012,121.091885 330.539602,109.556776 330.539602,98.7598784 C330.539602,91.1929846 333.584836,85.378806 339.675304,81.225821 C344.013058,78.5501246 349.180546,77.0736996 353.79459,77.0736996 C365.790758,77.0736996 374.189112,85.6559594 374.189112,98.021666 C374.189112,106.419157 370.866724,113.063069 364.499102,117.123669 C361.453868,119.153538 356.193996,121.091885 351.856242,121.091885 L351.857106,121.091885 L351.857106,121.091885 Z M187.410994,81.595359 C185.472647,81.595359 183.719932,82.056418 182.427413,82.9793996 C178.828735,85.194037 176.982772,89.6241752 176.982772,96.0833186 C176.982772,108.172735 183.073241,116.66261 191.747885,116.66261 C194.33206,116.66261 196.361929,115.924398 198.115507,114.447973 C200.791203,112.232472 202.176107,107.803197 202.176107,101.620344 C202.176107,89.6241752 196.269544,81.595359 187.410994,81.595359 L187.410994,81.595359 L187.410994,81.595359 Z M189.072188,121.091885 C173.384094,121.091885 167.754684,109.556776 167.754684,98.7598784 C167.754684,91.1929846 170.799918,85.378806 176.890387,81.225821 C181.228141,78.5501246 186.395628,77.0736996 191.009672,77.0736996 C203.006704,77.0736996 211.404195,85.6559594 211.404195,98.021666 C211.404195,106.419157 208.081807,113.063069 201.714185,117.123669 C198.761335,119.153538 193.501463,121.091885 189.072188,121.091885 L189.072188,121.091885 L189.072188,121.091885 Z M83.5941444,120.168904 C83.4093754,119.892614 83.2246064,119.062017 83.316991,118.046651 C83.316991,117.308438 83.50176,116.846516 83.5941444,116.66261 C85.5316284,116.385457 86.5469944,116.108303 87.6538814,115.832013 C89.4998442,115.370091 90.2380568,114.355588 90.3304412,112.048566 C90.6075946,106.511541 90.6075946,95.990934 90.5152102,88.7011938 L90.5152102,88.5164248 C90.5152102,87.6858278 90.5152102,86.6704618 89.4998442,85.9322494 C88.0234192,85.0101314 86.2698408,84.1795344 83.962819,83.532843 C83.132222,83.256553 82.5787784,82.7946306 82.671163,82.241187 C82.671163,81.6877436 83.2246064,81.0419156 84.4247414,80.8571466 C87.4699758,80.579993 95.405544,78.6425092 98.543163,77.2584686 C98.727932,77.4423742 99.0050854,77.9966812 99.0050854,78.7348936 L98.912701,79.7493962 C98.8203164,80.764762 98.727932,81.964897 98.727932,83.1641684 C98.727932,83.532843 99.0974698,83.8099964 99.4661444,83.8099964 C99.6509134,83.8099964 99.8356824,83.717612 100.020451,83.6252274 C105.926151,79.0111836 111.278407,77.3499898 114.046488,77.3499898 C118.569011,77.3499898 122.075305,79.473106 124.751864,83.902381 C124.93577,84.1795344 125.120539,84.2710554 125.397692,84.2710554 C125.582461,84.2710554 125.858751,84.1795344 125.951136,83.9947654 C131.395777,79.8417806 136.840418,77.3499898 140.439096,77.3499898 C149.021355,77.3499898 154.097321,83.717612 154.097321,94.5145092 C154.097321,97.5597436 154.097321,101.527959 154.004937,105.127501 C154.004937,108.356641 153.912553,111.310354 153.912553,113.432607 C153.912553,113.893666 154.558381,115.370091 155.573746,115.647244 C156.865402,116.293072 158.618981,116.570226 160.926003,116.9389 L161.018387,116.9389 C161.203156,117.584728 160.833618,119.984135 160.464944,120.446057 C159.910637,120.446057 159.08004,120.446057 158.157922,120.353673 C156.404343,120.261288 153.912553,120.168904 151.144472,120.168904 C145.422677,120.168904 142.469827,120.261288 139.608499,120.446057 C139.424593,119.707845 139.332208,117.493207 139.608499,116.9389 C141.269692,116.66261 142.100289,116.385457 143.115655,116.108303 C144.961618,115.55486 145.422677,114.724263 145.515062,112.324856 C145.515062,110.572141 145.883736,95.6222596 145.330293,92.0227182 C144.776849,88.3316558 142.007905,83.9947654 135.917436,83.9947654 C133.610414,83.9947654 130.011736,84.9177468 126.504579,87.5934434 C126.320674,87.7782124 126.135905,88.2392714 126.135905,88.5164248 L126.135905,88.6088092 C126.504579,90.5462932 126.504579,92.7617942 126.504579,96.175703 L126.504579,102.173787 C126.504579,106.326772 126.412195,110.202604 126.504579,113.155453 C126.504579,115.186185 127.704714,115.647244 128.72008,116.016782 C129.273524,116.108303 129.642198,116.200688 130.104121,116.293072 C130.934718,116.477841 131.765315,116.66261 133.056971,116.9389 C133.24174,117.308438 133.24174,118.50771 132.964586,119.523076 C132.872202,120.076519 132.687433,120.353673 132.595912,120.446057 C129.458293,120.353673 126.228289,120.261288 121.521861,120.261288 C120.137821,120.261288 117.738414,120.353673 115.707682,120.353673 C114.046488,120.353673 112.477679,120.446057 111.555561,120.446057 C111.463176,120.261288 111.278407,119.61546 111.278407,118.600094 C111.278407,117.769497 111.463176,117.123669 111.647945,116.9389 C112.109004,116.846516 112.477679,116.754995 112.939601,116.754995 C114.046488,116.570226 114.96947,116.385457 115.892451,116.200688 C117.461261,115.739629 118.014704,114.909032 118.107089,112.879163 C118.384242,108.26512 118.660532,95.068816 118.014704,91.7464282 C116.907817,86.3941718 113.862583,83.717612 108.971386,83.717612 C106.11092,83.717612 102.511379,85.1016524 99.558529,87.3171532 C99.0974698,87.6858278 98.727932,88.6088092 98.727932,89.4394062 L98.727932,94.884047 C98.727932,101.527959 98.727932,109.833929 98.8203164,113.432607 C98.912701,114.539494 99.2813754,115.832013 101.404492,116.293072 C101.865551,116.385457 102.603763,116.570226 103.526745,116.66261 L105.187939,116.9389 C105.372708,117.493207 105.280323,119.707845 104.910785,120.446057 C103.987804,120.446057 102.880917,120.353673 101.588397,120.353673 C99.6509134,120.261288 97.1591224,120.168904 94.3910416,120.168904 C91.1610382,120.168904 88.8540162,120.261288 87.0080534,120.353673 C85.7163974,120.168904 84.7010314,120.168904 83.5941444,120.168904 L83.5941444,120.168904 L83.5941444,120.168904 Z" fill="#442D22"></path>
        <g>
          <path d="M35.0534362,142.317005 L31.2699893,141.024486 C31.2699893,141.024486 31.7319117,121.737713 24.8108459,120.353673 C20.1968021,115.001416 25.5490584,-106.659184 42.1592709,119.61546 C42.1592709,119.61546 36.43834,122.475926 35.4229741,127.367123 C34.3152237,132.165936 35.0534362,142.317005 35.0534362,142.317005 L35.0534362,142.317005 L35.0534362,142.317005 Z" fill="#FFFFFF"></path>
          <path d="M35.0534362,142.317005 L31.2699893,141.024486 C31.2699893,141.024486 31.7319117,121.737713 24.8108459,120.353673 C20.1968021,115.001416 25.5490584,-106.659184 42.1592709,119.61546 C42.1592709,119.61546 36.43834,122.475926 35.4229741,127.367123 C34.3152237,132.165936 35.0534362,142.317005 35.0534362,142.317005 L35.0534362,142.317005 L35.0534362,142.317005 Z" fill="#A6A385"></path>
          <path d="M37.0841679,123.676061 C37.0841679,123.676061 70.2130718,101.897497 62.461409,56.5867926 C54.9868998,23.6426576 37.360458,12.8457605 35.422974,8.69277572 C33.3007211,5.7399258 31.2699892,0.572438448 31.2699892,0.572438448 L32.6548931,92.2074874 C32.6548931,92.2998718 29.7935642,120.261288 37.0841679,123.676061" fill="#FFFFFF"></path>
          <path d="M37.0841679,123.676061 C37.0841679,123.676061 70.2130718,101.897497 62.461409,56.5867926 C54.9868998,23.6426576 37.360458,12.8457605 35.422974,8.69277572 C33.3007211,5.7399258 31.2699892,0.572438448 31.2699892,0.572438448 L32.6548931,92.2074874 C32.6548931,92.2998718 29.7935642,120.261288 37.0841679,123.676061" fill="#499D4A"></path>
          <path d="M29.332506,124.875332 C29.332506,124.875332 -1.76652951,103.650212 0.0794333896,66.2768026 C1.8321484,28.9025296 23.7954806,10.5387386 28.0399866,7.21635076 C30.8089308,4.26350084 30.9013154,3.15575042 31.0860844,0.202900506 C33.0235682,4.35588532 32.6548938,62.3085868 32.9311838,69.1372682 C33.7617808,95.4374908 31.4547588,119.892614 29.332506,124.875332 L29.332506,124.875332 L29.332506,124.875332 Z" fill="#FFFFFF"></path>
          <path d="M29.332506,124.875332 C29.332506,124.875332 -1.76652951,103.650212 0.0794333896,66.2768026 C1.8321484,28.9025296 23.7954806,10.5387386 28.0399866,7.21635076 C30.8089308,4.26350084 30.9013154,3.15575042 31.0860844,0.202900506 C33.0235682,4.35588532 32.6548938,62.3085868 32.9311838,69.1372682 C33.7617808,95.4374908 31.4547588,119.892614 29.332506,124.875332 L29.332506,124.875332 L29.332506,124.875332 Z" fill="#58AA50"></path>
        </g>
      </g>
    </g>
  </symbol>
  <symbol version="1.1" xmlns="http://www.w3.org/2000/svg" xmlns:xlink="http://www.w3.org/1999/xlink" preserveAspectRatio="xMidYMid" viewBox="0 -0.5 256 256" id="nestjs">
    <g>
      <path d="M150.735739,0 C148.8846,0 147.165687,0.396686115 145.57898,0.925572289 C148.950692,3.17338764 150.801841,6.14846547 151.727441,9.52018849 C151.793738,9.98296798 151.925779,10.3135464 151.991974,10.7763105 C152.058271,11.1729967 152.124118,11.5696685 152.124118,11.9663525 C152.388692,17.7842283 150.603503,18.5114632 149.34739,21.9493092 C147.430118,26.3788568 147.959,31.1389429 150.272949,34.973472 C150.471297,35.4362392 150.735739,35.9651387 151.066323,36.4279315 C148.554016,19.7014919 162.503769,17.1892201 165.082118,11.9663525 C165.280456,7.40458752 161.512066,4.36341631 158.53702,2.24781739 C155.69419,0.528900497 153.115769,0 150.735739,0 Z M171.759482,3.76840811 C171.494928,5.28898963 171.693287,4.89231579 171.627369,5.68567267 C171.561174,6.21455987 171.561174,6.87570033 171.495245,7.40458752 C171.363122,7.93348904 171.230671,8.46237624 171.032435,8.99130129 C170.900322,9.52018849 170.701881,10.049089 170.503553,10.5779752 C170.238979,11.1069012 170.040763,11.5696685 169.776312,12.0985679 C169.577984,12.3631266 169.445758,12.6274551 169.24742,12.8919248 C169.115296,13.0902602 168.982866,13.2885966 168.850753,13.486932 C168.520199,13.9497371 168.189615,14.4125043 167.859071,14.809175 C167.462374,15.2058612 167.13182,15.6686274 166.669009,15.999217 C166.669009,16.0654117 166.669009,16.0654117 166.669009,16.0654117 C166.272343,16.3959758 165.875666,16.7926476 165.412897,17.1231994 C164.024527,18.1809861 162.437851,18.9743419 160.983358,19.9660342 C160.520599,20.296586 160.057779,20.5610567 159.661122,20.9577265 C159.198343,21.2882783 158.801656,21.6188301 158.404999,22.0155141 C157.942189,22.4121859 157.611635,22.80887 157.214948,23.2716618 C156.884394,23.6683469 156.487728,24.1311161 156.223287,24.5939202 C155.892702,25.0566864 155.562158,25.5194802 155.297687,25.9822587 C155.033143,26.5111448 154.834907,26.9739499 154.570456,27.5028381 C154.372128,28.0317243 154.173769,28.4945314 154.041564,29.0234166 C153.843225,29.6184381 153.710999,30.1473386 153.578774,30.6762513 C153.512579,30.940808 153.512579,31.2712462 153.446651,31.5357026 C153.380354,31.8002603 153.380354,32.0645898 153.314537,32.3290595 C153.314537,32.8579457 153.248343,33.4529672 153.248343,33.9818544 C153.248343,34.3785385 153.248343,34.7752092 153.314537,35.1718943 C153.314537,35.7007825 153.380732,36.2296708 153.512866,36.8246902 C153.57906,37.3535764 153.711184,37.8824769 153.84345,38.411403 C154.041789,38.9402891 154.174014,39.4691896 154.372332,39.9980768 C154.504476,40.3286675 154.702886,40.6592183 154.835142,40.9236491 L139.629276,35.0396492 C137.050876,34.3124134 134.53863,33.6513108 131.96023,33.0562893 C130.571882,32.7257385 129.183533,32.3951631 127.795164,32.064598 C123.828405,31.2712544 119.795584,30.6762585 115.762713,30.2795877 C115.6306,30.2795877 115.564384,30.2133828 115.432159,30.2133828 C111.46539,29.8167121 107.564785,29.6183757 103.598046,29.6183757 C100.689082,29.6183757 97.7801182,29.7504898 94.9372865,29.9489275 C90.9044271,30.2134852 86.8715616,30.7422833 82.8387298,31.4033859 C81.8470355,31.5355134 80.8553432,31.7339756 79.8636479,31.932313 C77.814172,32.3289582 75.8308161,32.7917633 73.9135536,33.2545551 C72.9218613,33.5191127 71.930167,33.7834556 70.9384737,34.0478874 C69.9468122,34.4445571 69.0212429,34.9073643 68.095641,35.304035 C67.3684092,35.6345868 66.6411805,35.9651499 65.9139477,36.2957273 C65.7818254,36.3619322 65.6493941,36.3619322 65.5833938,36.4278547 C64.9222554,36.7584055 64.32724,37.0228363 63.7322543,37.353425 C63.5339149,37.4196299 63.4016677,37.4855401 63.2694534,37.5517624 C62.5422226,37.8823152 61.8149939,38.278986 61.2199754,38.6095491 C60.7571755,38.8078855 60.2944062,39.0723419 59.8977303,39.2706905 C59.6993898,39.4028047 59.4349273,39.5352359 59.3027129,39.6012424 C58.7076986,39.9317942 58.1126822,40.2623439 57.5837889,40.5929346 C56.9887725,40.9234854 56.4598792,41.2540372 55.9970792,41.584589 C55.534312,41.9151787 55.071513,42.1796095 54.6748331,42.5101603 C54.6085975,42.5763652 54.5427108,42.5763652 54.4764936,42.6422888 C54.0798177,42.9068454 53.6170484,43.2372949 53.2203726,43.5678846 C53.2203726,43.5678846 53.1541472,43.6340792 53.0882492,43.7000099 C52.7576954,43.9645676 52.4271088,44.2288992 52.0965559,44.49333 C51.9644347,44.5595349 51.8320013,44.6916654 51.699879,44.7578866 C51.3693252,45.0224464 51.0387713,45.3529081 50.7082164,45.6173635 C50.6419911,45.7494899 50.509879,45.8156999 50.4436618,45.8819222 C50.0469849,46.278594 49.650307,46.6091448 49.2536301,47.0058299 C49.1874047,47.0058299 49.1874047,47.0720348 49.1215078,47.137944 C48.7248309,47.4685081 48.328155,47.8651809 47.9314781,48.261865 C47.8652527,48.3280699 47.8652527,48.3939781 47.7993548,48.3939781 C47.4688009,48.7245309 47.138247,49.0551195 46.8076615,49.4517647 C46.6755412,49.5838911 46.4771076,49.7163245 46.3448932,49.8484365 C46.0143394,50.2451216 45.6176614,50.6417934 45.2209856,51.0384785 C45.1547602,51.1705936 45.0226471,51.2368149 44.9564299,51.3690293 C44.4275356,51.8979554 43.9647356,52.4268426 43.4358433,52.955742 C43.3696179,53.0219469 43.303722,53.0878531 43.2375059,53.1540785 C42.1796895,54.2779851 41.0557798,55.4018928 39.8657788,56.3935779 C38.6757491,57.4513625 37.4196229,58.4430548 36.1634702,59.3025112 C34.841222,60.2281111 33.5850989,61.0214342 32.1967287,61.814788 C30.8744805,62.5419983 29.4861114,63.203147 28.0316498,63.7981726 C26.6432786,64.3931777 25.1888181,64.9220905 23.7343535,65.3848495 C20.9576141,65.9798546 18.1147803,67.1037725 15.6686255,67.302111 C15.1397332,67.302111 14.5447168,67.4342445 14.0158235,67.5004392 C13.4208102,67.6325625 12.8919168,67.765003 12.3630245,67.8971366 C11.8341312,68.0954546 11.3052082,68.2938033 10.7763138,68.4921315 C10.2474205,68.6904699 9.71852817,68.9549314 9.18963483,69.2193827 C8.72683488,69.5499263 8.19794359,69.8143878 7.73514159,70.1449417 C7.27237028,70.4754956 6.80957032,70.8721622 6.41289239,71.2688494 C5.95012415,71.5994339 5.48732419,72.0622134 5.09064626,72.4588699 C4.69396833,72.9216903 4.29729245,73.318357 3.96673818,73.781116 C3.63618422,74.3100083 3.23950659,74.7728185 2.97504427,75.301721 C2.64449041,75.764521 2.31393666,76.2934031 2.04947434,76.8222749 C1.78491922,77.417321 1.52058223,77.9462031 1.32224285,78.5412287 C1.1239045,79.070121 0.925566048,79.6651261 0.727227595,80.2601517 C0.59510611,80.7890338 0.462672683,81.3179363 0.396673941,81.8468082 C0.396673941,81.9131051 0.330459836,81.978952 0.330459836,82.0451568 C0.198337328,82.6402029 0.198337328,83.4335669 0.132120563,83.8302541 C0.0659064584,84.2930234 0,84.6896798 0,85.15249 C0,85.4170436 0,85.7474747 0.066214105,86.0119259 C0.13242821,86.4747361 0.198334464,86.8714028 0.330769119,87.2681104 C0.462890603,87.6647259 0.595324236,88.061413 0.793538485,88.4581002 C0.793538485,88.5242949 0.793538485,88.5242949 0.793538485,88.5242949 C0.991876836,88.9210025 1.25633906,89.3176589 1.52077007,89.7143358 C1.78532508,90.1110127 2.04969348,90.5076896 2.38024734,90.9043768 C2.7108011,91.2349306 3.10747903,91.6315768 3.50415543,91.9621512 C3.90083325,92.3588281 4.29751139,92.6893819 4.76027963,93.0199358 C6.34698828,94.4083152 6.74366519,94.8711151 8.7931472,95.9288895 C9.12369799,96.1272382 9.45428561,96.2594639 9.85096252,96.4578023 C9.91718788,96.4578023 9.98308482,96.523997 10.0492999,96.523997 C10.0492999,96.6561101 10.0492999,96.7223457 10.1155253,96.8545918 C10.1817404,97.3834943 10.3138627,97.9123662 10.4460792,98.4412789 C10.5782004,99.0362943 10.7766647,99.5652071 10.9750032,100.027976 C11.1733416,100.424663 11.3055571,100.82132 11.5038965,101.218017 C11.5701117,101.350151 11.6360199,101.482571 11.702235,101.548571 C11.9667896,102.077453 12.2311273,102.540284 12.4955581,103.003033 C12.8261437,103.465812 13.1566965,103.928592 13.4872494,104.391412 C13.8178053,104.788069 14.2144832,105.250858 14.6111591,105.647525 C15.007837,106.044212 15.4045149,106.374776 15.8673159,106.771422 C15.8673159,106.771422 15.9335413,106.837719 15.9994362,106.837719 C16.3961151,107.168304 16.79279,107.498868 17.1894689,107.763278 C17.6522382,108.093853 18.1150382,108.358283 18.6439294,108.622755 C19.1067304,108.887309 19.6356238,109.151648 20.1645161,109.349996 C20.561194,109.548335 21.0239622,109.680571 21.4867642,109.812786 C21.5529896,109.879083 21.6188855,109.879083 21.7513199,109.94493 C22.0158745,110.011227 22.3463025,110.077033 22.610765,110.143248 C22.4124276,113.713309 22.3462094,117.085032 22.8753217,118.275083 C23.4703063,119.597319 26.3792611,115.564468 29.288218,110.936612 C28.8915421,115.498365 28.6270785,120.853432 29.288218,122.44017 C30.0154477,124.09294 33.9821891,118.936181 37.4200362,113.250519 C84.2936988,102.40813 127.068465,134.803175 131.564085,180.552928 C130.704619,173.412785 121.911675,169.446057 117.878845,170.437759 C115.89545,175.330056 112.523727,181.610723 107.102527,185.511359 C107.565306,181.147933 107.36706,176.652313 106.441409,172.288877 C104.986917,178.371226 102.144076,184.056918 98.2434297,188.949215 C91.962756,189.411984 85.682067,186.370805 82.3764353,181.809082 C82.1118796,181.610723 82.0458804,181.214056 81.8475419,180.949615 C81.6492014,180.486785 81.450866,180.024046 81.3186486,179.561236 C81.1203112,179.098467 80.9880958,178.635667 80.9219727,178.172897 C80.8557474,177.710087 80.8557474,177.247308 80.8557474,176.718426 C80.8557474,176.387841 80.8557474,176.057297 80.8557474,175.726754 C80.9219727,175.263923 81.0540858,174.801144 81.1863022,174.338354 C81.3184235,173.875585 81.4508558,173.412785 81.6491022,172.949995 C81.9136578,172.487236 82.1118715,172.024436 82.442457,171.561667 C83.5663647,168.388231 83.5663647,165.809872 81.5168878,164.289298 C81.1202099,164.024744 80.723533,163.826488 80.260733,163.628149 C79.9961753,163.561954 79.6657156,163.429811 79.4012868,163.363606 C79.2029474,163.297411 79.070733,163.231462 78.8723935,163.165257 C78.4095925,163.033134 77.9467915,162.900693 77.4840223,162.834703 C77.0212223,162.70259 76.5584531,162.636365 76.0956531,162.636365 C75.6328828,162.570068 75.1039578,162.504241 74.6411895,162.504241 C74.3106367,162.504241 73.9800511,162.570436 73.6494962,162.570436 C73.1206049,162.570436 72.657805,162.636733 72.1950337,162.768775 C71.7322337,162.835072 71.2694655,162.900888 70.8066655,163.033308 C70.3438942,163.165441 69.8810932,163.297871 69.4182933,163.496138 C68.955525,163.694467 68.5588461,163.892805 68.0960482,164.091143 C67.699402,164.289492 67.302723,164.553913 66.8399241,164.752251 C51.4357286,174.801328 60.6253652,198.337338 71.1372204,205.146917 C67.1704769,205.874148 63.1376441,206.733645 62.0137344,207.593071 C61.947509,207.659265 61.8816131,207.725204 61.8816131,207.725204 C64.7244459,209.444107 67.6994961,210.898589 70.8067576,212.154712 C75.0379626,213.543081 79.5335943,214.799214 81.5169799,215.328127 C81.5169799,215.328127 81.5169799,215.394322 81.5169799,215.394322 C87.0043069,216.51824 92.5577591,216.914917 98.1773067,216.584363 C127.465111,214.534876 151.463911,192.254979 155.827336,162.901092 C155.959459,163.496118 156.09189,164.02499 156.224013,164.620026 C156.422362,165.810015 156.686782,167.066159 156.818998,168.322292 C156.818998,168.322292 156.818998,168.322292 156.818998,168.388589 C156.951121,168.983604 157.017336,169.57861 157.083551,170.107502 C157.083551,170.239625 157.083551,170.30584 157.083551,170.372066 C157.149848,170.967071 157.215685,171.562096 157.215685,172.090979 C157.281879,172.81822 157.347808,173.54544 157.347808,174.272712 C157.347808,174.603266 157.347808,174.93383 157.347808,175.330496 C157.347808,175.661081 157.414003,176.057717 157.414003,176.388301 C157.414003,176.784989 157.347808,177.181635 157.347808,177.578312 C157.347808,177.908907 157.347808,178.23945 157.347808,178.503881 C157.347808,178.966691 157.281511,179.363348 157.281511,179.826137 C157.281511,180.09067 157.281511,180.35504 157.215316,180.685604 C157.215316,181.148414 157.149122,181.611163 157.149122,182.140065 C157.082825,182.338404 157.082825,182.536742 157.082825,182.735091 C157.01663,183.263994 156.950701,183.726783 156.884476,184.255686 C156.884476,184.454035 156.884476,184.652353 156.818281,184.850711 C156.751984,185.511809 156.619953,186.106845 156.553759,186.767942 C156.553759,186.767942 156.553759,186.834239 156.553759,186.834239 L156.553759,186.900434 C156.421635,187.495439 156.289185,188.156557 156.157051,188.751562 C156.157051,188.817757 156.157051,188.883685 156.157051,188.949911 C156.024948,189.544906 155.892497,190.139942 155.760395,190.734926 C155.760395,190.801223 155.6942,190.933275 155.6942,190.999459 C155.562056,191.594495 155.429626,192.1895 155.231431,192.784546 C155.231431,192.850741 155.231431,192.916649 155.231431,192.982864 C155.033092,193.643962 154.834743,194.238987 154.702508,194.834003 C154.636313,194.900197 154.636313,194.966126 154.636313,194.966126 C154.437964,195.627265 154.239646,196.288372 154.041328,196.94949 C153.776775,197.610629 153.578539,198.205634 153.314097,198.866762 C153.049554,199.52789 152.851287,200.189018 152.586846,200.784013 C152.322282,201.445162 152.057933,202.040177 151.793503,202.701275 C151.793503,202.701275 151.727206,202.701275 151.727206,202.701275 C151.462632,203.29628 151.198272,203.957428 150.867698,204.552454 C150.867698,204.552454 150.867698,204.552454 150.867698,204.552454 C150.867698,204.552454 150.867698,204.552454 150.867698,204.552454 C150.801503,204.750762 150.735595,204.883008 150.66938,205.015203 C150.603185,205.0815 150.603185,205.147326 150.537257,205.213562 C146.239965,213.874259 139.893144,221.477182 131.959688,227.427315 C131.430796,227.757869 130.901883,228.154556 130.373001,228.551213 C130.373001,228.551213 130.373001,228.551213 130.373001,228.551213 C130.240867,228.683346 130.042416,228.749571 129.910201,228.881766 C129.447401,229.21233 128.984621,229.542874 128.45575,229.873469 L128.654078,230.270146 L128.720272,230.270146 C129.645831,230.138033 130.571411,230.005592 131.49699,229.873469 L131.563185,229.873469 C133.282118,229.608915 135.001041,229.278454 136.719975,228.9479 C137.182734,228.881603 137.711667,228.749571 138.174426,228.617315 C138.50498,228.551018 138.769441,228.485202 139.099995,228.418977 C139.562795,228.35268 140.025575,228.220638 140.488385,228.154433 C140.885041,228.02231 141.281728,227.956074 141.678395,227.823869 C148.289626,226.237151 154.702549,224.055428 160.850959,221.477069 C150.339123,235.823438 136.257164,247.39312 119.795185,254.996043 C127.398129,254.46714 135.001041,253.211017 142.339513,251.095428 C168.982815,243.228013 191.394896,225.311582 204.815706,201.180557 C202.105101,216.452536 196.022763,230.997254 187.031491,243.690843 C193.444384,239.459613 199.328383,234.567305 204.683491,229.013869 C219.49266,213.543582 229.211203,193.908229 232.516793,172.818332 C234.764629,183.264096 235.425757,194.040455 234.434065,204.684526 C282.167212,138.109348 238.400803,69.0880165 220.087686,50.9071133 C220.021389,50.7749971 219.955562,50.7087769 219.955562,50.5765605 C219.889265,50.6427551 219.889265,50.6427551 219.889265,50.7086879 C219.889265,50.642483 219.889265,50.642483 219.823071,50.5765605 C219.823071,51.3699163 219.756876,52.1632354 219.690947,52.9565922 C219.492599,54.4771768 219.294281,55.9316476 219.029809,57.3861398 C218.699265,58.8406013 218.302578,60.2950424 217.905891,61.7495448 C217.443122,63.1378833 216.91425,64.5923551 216.319214,65.9807345 C215.724199,67.3029602 215.06307,68.6913293 214.33584,70.0135959 C213.608599,71.2697395 212.815255,72.5919754 211.955809,73.7819856 C211.096342,75.0381496 210.170763,76.2281497 209.245173,77.3520369 C208.253471,78.5420881 207.195706,79.5998931 206.137891,80.657688 C205.476783,81.2527034 204.881778,81.7815957 204.220619,82.3104675 C203.691737,82.7732777 203.228958,83.1699649 202.700035,83.6327137 C201.510025,84.5582931 200.320004,85.4177597 198.997768,86.2111238 C197.741625,87.0044571 196.419409,87.797811 195.097153,88.4589494 C193.708784,89.1200673 192.320415,89.7150724 190.932066,90.310098 C189.543697,90.8389699 188.089235,91.3017698 186.634722,91.698457 C185.180271,92.0951134 183.659697,92.4256877 182.205215,92.6901288 C180.684651,92.9546824 179.164056,93.0867955 177.709584,93.2190416 C176.651779,93.2852362 175.593994,93.3511751 174.536179,93.3511751 C173.015584,93.3511751 171.49503,93.2190416 170.040548,93.0866215 C168.519974,92.9544982 166.999369,92.7560165 165.544907,92.4254627 C164.024323,92.1609091 162.569831,91.7643243 161.115359,91.3015754 L161.049164,91.3015754 C162.503636,91.1694521 163.958118,91.0370014 165.41261,90.7726627 C166.933164,90.5081091 168.387636,90.1776678 169.842128,89.7809602 C171.29659,89.3842935 172.751061,88.9214935 174.13942,88.3926115 C175.593882,87.8637089 176.982261,87.2026114 178.304518,86.5414526 C179.692866,85.8803141 180.94901,85.1531038 182.271246,84.35975 C183.527369,83.5002936 184.783512,82.6408475 185.973533,81.7152475 C187.163564,80.7896886 188.287451,79.7980167 189.345287,78.7402117 C190.469194,77.7484989 191.460866,76.6246015 192.452558,75.5006836 C193.44422,74.3106938 194.36981,73.1206631 195.229276,71.9306323 C195.36141,71.7322837 195.49384,71.4678631 195.625974,71.2695144 C196.287071,70.2117093 196.948179,69.1539144 197.543184,68.0960991 C198.270435,66.773853 198.931574,65.4515966 199.526568,64.0632684 C200.121594,62.6748992 200.650497,61.2865198 201.113286,59.8320685 C201.576056,58.4436891 201.90662,56.9892378 202.237194,55.5347783 C202.501758,54.0141855 202.766076,52.5596913 202.898312,51.1052318 C203.030435,49.5846533 203.162855,48.0640596 203.162855,46.6096021 C203.162855,45.5517888 203.096558,44.4940022 203.030752,43.4362145 C202.898619,41.915634 202.700178,40.4611377 202.50185,39.0066772 C202.237286,37.4860854 201.906845,36.031628 201.510147,34.5771296 C201.047388,33.1887901 200.584578,31.734305 200.055696,30.3459676 C199.526763,28.9575902 198.865676,27.5692272 198.204517,26.2469698 C197.477286,24.9247257 196.750065,23.6024816 195.956722,22.3463586 C195.097265,21.0902355 194.237778,19.9002078 193.312209,18.7101669 C192.320548,17.5862582 191.328855,16.4623515 190.27103,15.3384439 C189.742148,14.8095546 189.147122,14.2145341 188.552117,13.685648 C185.577071,11.3716993 182.469779,9.18997737 179.362517,7.20662045 C178.899738,6.94207301 178.503061,6.74382868 178.040261,6.54548 C175.858538,5.15713947 173.809061,4.42987903 171.759594,3.76877541 L171.759482,3.76840811 Z" fill="#E0234E"></path>
    </g>
  </symbol>
  <symbol version="1.1" xmlns="http://www.w3.org/2000/svg" xmlns:xlink="http://www.w3.org/1999/xlink" preserveAspectRatio="xMidYMid" viewBox="-16.5 0 289 289" id="nodejs">
    <g>
      <path d="M127.999999,288.463771 C124.024844,288.463771 120.314699,287.403728 116.869564,285.548656 L81.6231884,264.612838 C76.32298,261.697724 78.9730854,260.637682 80.5631458,260.107661 C87.7184259,257.72257 89.0434775,257.192547 96.4637688,252.952381 C97.2587979,252.422361 98.3188405,252.687372 99.1138718,253.217392 L126.144927,269.383024 C127.20497,269.913045 128.530021,269.913045 129.325053,269.383024 L235.064182,208.165634 C236.124225,207.635611 236.654245,206.575571 236.654245,205.250519 L236.654245,83.0807467 C236.654245,81.7556929 236.124225,80.6956526 235.064182,80.1656324 L129.325053,19.2132506 C128.26501,18.6832305 126.939959,18.6832305 126.144927,19.2132506 L20.4057954,80.1656324 C19.3457551,80.6956526 18.8157349,82.0207041 18.8157349,83.0807467 L18.8157349,205.250519 C18.8157349,206.31056 19.3457551,207.635611 20.4057954,208.165634 L49.2919247,224.861286 C64.9275364,232.811595 74.7329196,223.536234 74.7329196,214.260871 L74.7329196,93.681159 C74.7329196,92.0910985 76.0579711,90.5010358 77.9130428,90.5010358 L91.4285716,90.5010358 C93.0186343,90.5010358 94.6086948,91.8260873 94.6086948,93.681159 L94.6086948,214.260871 C94.6086948,235.196689 83.2132512,247.387164 63.3374737,247.387164 C57.2422362,247.387164 52.4720502,247.387164 38.9565214,240.761906 L11.1304347,224.861286 C4.24016581,220.886129 5.68434189e-14,213.46584 5.68434189e-14,205.515528 L5.68434189e-14,83.3457557 C5.68434189e-14,75.3954465 4.24016581,67.9751552 11.1304347,64.0000006 L116.869564,2.78260752 C123.494824,-0.927535841 132.505176,-0.927535841 139.130436,2.78260752 L244.869565,64.0000006 C251.759834,67.9751552 256,75.3954465 256,83.3457557 L256,205.515528 C256,213.46584 251.759834,220.886129 244.869565,224.861286 L139.130436,286.078676 C135.685299,287.668739 131.710145,288.463771 127.999999,288.463771 L127.999999,288.463771 Z M160.596274,204.455488 C114.219461,204.455488 104.679089,183.254659 104.679089,165.233955 C104.679089,163.643893 106.004141,162.053832 107.859212,162.053832 L121.639752,162.053832 C123.229813,162.053832 124.554864,163.113872 124.554864,164.703935 C126.674947,178.749484 132.770187,185.639753 160.861283,185.639753 C183.122154,185.639753 192.662526,180.604556 192.662526,168.67909 C192.662526,161.788821 190.012423,156.753624 155.296065,153.308489 C126.409938,150.393375 108.389235,144.033126 108.389235,120.977226 C108.389235,99.5113875 126.409938,86.7908901 156.621119,86.7908901 C190.542443,86.7908901 207.238095,98.4513472 209.358178,123.89234 C209.358178,124.687371 209.093167,125.482403 208.563147,126.277434 C208.033127,126.807454 207.238095,127.337474 206.443064,127.337474 L192.662526,127.337474 C191.337475,127.337474 190.012423,126.277434 189.747412,124.952382 C186.567289,110.376813 178.351966,105.606625 156.621119,105.606625 C132.240165,105.606625 129.325053,114.086957 129.325053,120.447205 C129.325053,128.132506 132.770187,130.5176 165.631471,134.757766 C198.227744,138.997931 213.598344,145.093169 213.598344,167.884058 C213.333333,191.20497 194.252589,204.455488 160.596274,204.455488 L160.596274,204.455488 Z" fill="#539E43"></path>
    </g>
  </symbol>
  <symbol fill="none" xmlns="http://www.w3.org/2000/svg" viewBox="0 0 32 32" id="npm-svgrepo-com">
    <path d="M0 10V20H9V22H16V20H32V10H0Z" fill="#CB3837"></path>
    <path d="M5.46205 12H2V18H5.46205V13.6111H7.22344V18H8.98482V12H5.46205ZM10.7462 12V20H14.269V18H17.731V12H10.7462ZM15.9696 16.3889H14.269V13.6111H15.9696V16.3889ZM22.9545 12H19.4924V18H22.9545V13.6111H24.7158V18H26.4772V13.6111H28.2386V18H30V12H22.9545Z" fill="white"></path>
  </symbol>
  <symbol version="1.1" xmlns="http://www.w3.org/2000/svg" xmlns:xlink="http://www.w3.org/1999/xlink" preserveAspectRatio="xMidYMid" viewBox="-4 0 264 264" id="postgresql">
    <g>
      <path d="M255.007926,158.085617 C253.473109,153.437413 249.452194,150.199279 244.251788,149.42182 C241.799982,149.055852 238.991667,149.211935 235.668988,149.897164 C229.877358,151.092028 225.580342,151.546679 222.44449,151.635363 C234.280794,131.650217 243.905921,108.859714 249.446873,87.4065589 C258.406282,52.7182633 253.61855,36.9154365 248.023797,29.7669469 C233.217182,10.8477783 211.614448,0.683454965 185.55152,0.371879908 C171.649478,0.202198614 159.443658,2.94725173 153.077358,4.92075751 C147.149155,3.87547344 140.774577,3.29134411 134.08606,3.18315012 C121.550337,2.9833164 110.473164,5.71595381 101.008259,11.332582 C95.7670577,9.56127483 87.3580785,7.06335335 77.6460416,5.46882217 C54.8035104,1.71868822 36.3939769,4.64110855 22.9282587,14.153903 C6.62230023,25.6721293 -0.937090069,45.6838799 0.461154734,73.6339954 C0.904572748,82.5082679 5.86908083,109.507695 13.6850624,135.114199 C18.1771824,149.831538 22.9672794,162.053912 27.9223279,171.443732 C34.9490254,184.758688 42.4676212,192.600092 50.9085266,195.415501 C55.6400924,196.992296 64.2358984,198.09552 73.2774873,190.566873 C74.4232794,191.953885 75.9515935,193.33321 77.9812656,194.613801 C80.5578199,196.239076 83.7090439,197.566965 86.8555381,198.353885 C98.1969885,201.189395 108.820102,200.479926 117.882975,196.506309 C117.93855,198.117986 117.981709,199.658125 118.018365,200.987788 C118.07867,203.145164 118.137792,205.259972 118.217016,207.237617 C118.753848,220.612286 119.663741,231.011326 122.359723,238.286928 C122.507529,238.687778 122.706771,239.29733 122.917247,239.943538 C124.261691,244.062005 126.511298,250.955677 132.232573,256.355326 C138.158411,261.947714 145.325229,263.663446 151.888998,263.662855 C155.180933,263.662855 158.322106,263.231261 161.076619,262.640628 C170.897441,260.536462 182.050291,257.329663 190.118134,245.84218 C197.745515,234.981986 201.453672,218.625182 202.124711,192.851363 C202.211621,192.122975 202.292028,191.427104 202.369478,190.763751 C202.421506,190.316194 202.474716,189.858587 202.528517,189.402162 L204.325838,189.560018 L204.788767,189.591353 C214.791095,190.047187 227.021155,187.925875 234.532065,184.437062 C240.467363,181.68255 259.485857,171.642383 255.007926,158.085617" fill="#000000"></path>
      <path d="M237.905589,160.722476 C208.165838,166.857016 206.121386,156.78788 206.121386,156.78788 C237.521885,110.194697 250.64824,51.0516028 239.320388,36.5766651 C208.417109,-2.90823095 154.921977,15.7655797 154.029229,16.2503834 L153.741894,16.3018199 C147.866309,15.0821247 141.290716,14.3555104 133.900416,14.2349007 C120.443566,14.0143741 110.236083,17.7627344 102.490457,23.636545 C102.490457,23.636545 7.06039723,-15.6768961 11.4987159,73.0806097 C12.4429007,91.9631224 38.5625866,215.954032 69.7171363,178.502947 C81.1041109,164.808425 92.1061986,153.229303 92.1061986,153.229303 C97.5708822,156.859418 104.112776,158.711132 110.970975,158.046005 L111.503667,157.593718 C111.338125,159.294079 111.413801,160.957192 111.717099,162.925968 C103.691233,171.893062 106.049626,173.467492 90.0055797,176.770069 C73.7711594,180.115806 83.308194,186.072388 89.5349654,187.629081 C97.0837136,189.516859 114.54788,192.190965 126.34812,175.672166 L125.877506,177.556988 C129.022226,180.075603 131.230448,193.940397 130.860342,206.508637 C130.490236,219.077469 130.243104,227.706383 132.720924,234.446337 C135.198744,241.186291 137.668286,256.351187 158.759612,251.831871 C176.383409,248.055132 185.516046,238.268009 186.786587,221.94254 C187.688203,210.336222 189.728517,212.051954 189.857404,201.675381 L191.493912,196.762901 C193.381099,181.029838 191.793663,175.95418 202.651492,178.314938 L205.290125,178.546697 C213.2817,178.9103 223.741044,177.261376 229.879723,174.408129 C243.098309,168.273589 250.93794,158.031224 237.904406,160.722476 L237.905589,160.722476" fill="#336791"></path>
      <path d="M108.076342,81.5250624 C105.396915,81.152 102.969349,81.4972748 101.741376,82.426679 C101.050236,82.9499122 100.836804,83.5559169 100.779455,83.973321 C100.625145,85.0783187 101.399649,86.2997875 101.874993,86.9300323 C103.220619,88.7137552 105.18703,89.9399538 107.133339,90.2101432 C107.415353,90.249164 107.695594,90.2680831 107.974651,90.2680831 C111.220471,90.2680831 114.170679,87.7411917 114.430818,85.8758799 C114.755991,83.5399538 111.36473,81.9826697 108.076342,81.5250624" fill="#FFFFFF"></path>
      <path d="M196.860453,81.5989654 L196.859861,81.5989654 C196.604453,79.7679446 193.345626,79.2458938 190.253524,79.6757136 C187.166152,80.1061247 184.171603,81.4996397 184.421691,83.3347991 C184.622707,84.7620139 187.19867,87.198448 190.249386,87.1978568 C190.506568,87.1978568 190.766707,87.1807113 191.028619,87.1440554 C193.064794,86.8620416 194.558818,85.5690346 195.268286,84.8235012 C196.349635,83.688351 196.974559,82.4219492 196.860453,81.5989654" fill="#FFFFFF"></path>
      <path d="M247.802088,160.025423 C246.66812,156.596323 243.018494,155.492508 236.954309,156.745312 C218.949173,160.461155 212.501284,157.886965 210.38352,156.327908 C224.378975,135.007187 235.89188,109.236323 242.102688,85.1906513 C245.04521,73.8007206 246.670485,63.2231316 246.802919,54.601903 C246.949543,45.1375889 245.338457,38.1842032 242.014005,33.9362587 C228.611547,16.8108637 208.942115,7.62501617 185.131751,7.37256351 C168.763122,7.18869284 154.93321,11.3781062 152.252009,12.5558245 C146.60582,11.1516674 140.450587,10.2896628 133.750245,10.1796952 C121.461654,9.98104388 110.840314,12.9229746 102.045857,18.9191686 C98.2259584,17.4978661 88.3536998,14.10897 76.2814965,12.1644342 C55.4089238,8.80332564 38.8233164,11.3497275 26.9870115,19.7350577 C12.8638522,29.740933 6.34383372,47.626642 7.60727945,72.8943741 C8.03236952,81.3961755 12.8756767,107.547788 20.5202032,132.593219 C30.5822448,165.556915 41.5192979,184.218309 53.0280647,188.056536 C54.374873,188.505866 55.9286097,188.820397 57.6407945,188.820397 C61.8390762,188.820397 66.9856813,186.927889 72.3409885,180.490051 C81.2359538,169.788896 89.5408776,160.821801 92.6022356,157.563566 C97.1262818,159.992314 102.09552,161.347991 107.179455,161.483972 C107.188323,161.616998 107.201921,161.750023 107.213746,161.882457 C106.193885,163.092102 105.357303,164.152166 104.644286,165.05733 C101.122365,169.528166 100.389247,170.458753 89.0519353,172.793497 C85.8273995,173.458624 77.2611547,175.224018 77.1364065,181.227898 C76.9998337,187.787529 87.2605266,190.542633 88.4299677,190.834697 C92.5040924,191.854559 96.4286374,192.357691 100.171677,192.357691 C109.275344,192.357099 117.285838,189.365506 123.688203,183.576831 C123.490734,206.962697 124.466254,230.006836 127.273977,237.028212 C129.573247,242.775501 135.191649,256.822984 152.93842,256.821801 C155.54158,256.821801 158.408425,256.519095 161.561423,255.843326 C180.082106,251.872074 188.124527,243.686577 191.236139,225.640055 C192.901025,215.995418 195.758411,192.963695 197.101672,180.610069 C199.937774,181.49454 203.589173,181.899529 207.536185,181.898938 C215.768388,181.898938 225.266993,180.150097 231.224166,177.384942 C237.91564,174.277469 249.991982,166.650679 247.802088,160.025423 L247.802088,160.025423 Z M203.696185,76.5445912 C203.634697,80.1918522 203.132748,83.5027067 202.600647,86.9590023 C202.028342,90.6760277 201.435935,94.5189838 201.286947,99.1843326 C201.139732,103.724342 201.706716,108.444674 202.255372,113.008924 C203.363326,122.228471 204.500249,131.720573 200.098587,141.086744 C199.41454,139.871778 198.754143,138.546254 198.14873,137.078245 C197.601848,135.752129 196.414079,133.621949 194.769885,130.673515 C188.370476,119.197857 173.385312,92.3243603 181.056443,81.3583372 C183.340933,78.0935982 189.139658,74.7384018 203.696185,76.5445912 L203.696185,76.5445912 Z M186.052286,14.7581339 C207.386014,15.2293395 224.261321,23.2102725 236.209958,38.4780416 C245.373931,50.1890069 235.282919,103.476028 206.069949,149.446651 C205.781432,149.080092 205.487594,148.709986 205.183704,148.33042 C205.062503,148.178476 204.938938,148.024166 204.814189,147.868083 C212.362938,135.400942 210.886651,123.066236 209.572952,112.129774 C209.033164,107.641792 208.523529,103.402716 208.653007,99.4214134 C208.787215,95.2000739 209.34533,91.5811917 209.884527,88.0811455 C210.548471,83.7675751 211.223058,79.3050162 211.036822,74.0437136 C211.17576,73.4921016 211.231926,72.8399815 211.159206,72.0660693 C210.683861,67.0205635 204.924157,51.9224758 193.18363,38.2551501 C186.762346,30.7808961 177.396767,22.4156674 164.609774,16.7736166 C170.109931,15.6337367 177.631483,14.5707159 186.052286,14.7581339 L186.052286,14.7581339 Z M66.6741062,175.777995 C60.7742818,182.871501 56.6995658,181.512277 55.3598522,181.065903 C46.6292471,178.153533 36.499806,159.702023 27.568776,130.441755 C19.8408868,105.123769 15.3245266,79.6650716 14.9674273,72.5260416 C13.8387806,49.9483788 19.3117413,34.2129515 31.2349561,25.7572656 C50.6389284,11.9965266 82.5413764,20.2328684 95.3602956,24.4104573 C95.1758337,24.591963 94.9842771,24.7622356 94.8015889,24.9466975 C73.7664296,46.1911501 74.2654226,82.4875751 74.3168591,84.7058476 C74.3150855,85.56194 74.3866236,86.7739492 74.485358,88.4412009 C74.8471871,94.5455889 75.5205912,105.907732 73.7214965,118.775132 C72.0489238,130.732046 75.7346143,142.435326 83.8320185,150.883917 C84.6703741,151.758337 85.5453857,152.579547 86.4493672,153.352277 C82.8446744,157.212379 75.0115473,165.74788 66.6741062,175.777995 L66.6741062,175.777995 Z M89.1530346,145.78461 C82.6265127,138.975483 79.6627067,129.503483 81.020157,119.795584 C82.920351,106.202753 82.2185681,94.3646744 81.8419584,88.0048776 C81.7893395,87.1150855 81.7426328,86.335261 81.7148453,85.7197968 C84.7880277,82.9954365 99.0288406,75.3645081 109.184296,77.6915658 C113.819492,78.7534042 116.642587,81.9087667 117.816758,87.3373857 C123.893358,115.440037 118.621413,127.153367 114.385293,136.565654 C113.512055,138.504868 112.687298,140.337663 111.982559,142.234309 L111.436859,143.699954 C110.054577,147.406337 108.768665,150.851991 107.971695,154.124416 C101.034273,154.103132 94.2848591,151.139917 89.1530346,145.78461 L89.1530346,145.78461 Z M90.2178291,183.685025 C88.1922956,183.178938 86.3701432,182.299788 85.3012102,181.570808 C86.1939584,181.150448 87.7831686,180.579326 90.5388637,180.011751 C103.876286,177.265515 105.93552,175.328074 110.433552,169.61685 C111.465238,168.30788 112.634088,166.823316 114.252859,165.015353 C114.25345,165.014171 114.254042,165.01358 114.254633,165.012988 C116.666236,162.31346 117.768868,162.771067 119.768979,163.600554 C121.390115,164.271594 122.968684,166.303039 123.608979,168.539048 C123.911686,169.594975 124.252231,171.599815 123.138956,173.158873 C113.742633,186.31479 100.051067,186.1457 90.2178291,183.685025 L90.2178291,183.685025 Z M160.016554,248.637487 C143.700545,252.133395 137.923695,243.80837 134.116804,234.291436 C131.659677,228.146845 130.452397,200.440314 131.309081,169.84388 C131.320314,169.436527 131.262374,169.043363 131.150042,168.673848 C131.05249,167.96024 130.902319,167.238356 130.694208,166.511741 C129.419529,162.059824 126.315012,158.335704 122.5903,156.792018 C121.110467,156.178919 118.393792,155.05382 115.129644,155.888628 C115.826106,153.0206 117.033386,149.782467 118.341764,146.275326 L118.891012,144.79963 C119.509432,143.136517 120.284527,141.413691 121.105145,139.590356 C125.538143,129.741746 131.609423,116.25297 125.020231,85.7795104 C122.551871,74.3659307 114.310208,68.7924619 101.815871,70.0866513 C94.3250624,70.861746 87.472776,73.8840831 84.0549099,75.6169607 C83.3200185,75.9894319 82.6477968,76.3488961 82.0199169,76.6994919 C82.9735612,65.1990023 86.578254,43.707418 100.060527,30.1098568 C108.54873,21.548933 119.854115,17.3210901 133.628453,17.5487113 C160.768591,17.9933118 178.172453,31.9213672 187.994457,43.5276859 C196.457829,53.5294226 201.040998,63.6038799 202.870245,69.0372286 C189.115418,67.6389838 179.76048,70.3544758 175.017681,77.1340416 C164.700822,91.8815335 180.662097,120.506236 188.333229,134.262836 C189.739751,136.784406 190.954125,138.963067 191.336055,139.888924 C193.833977,145.943058 197.067972,149.984665 199.429321,152.935464 C200.152979,153.839446 200.855353,154.716231 201.389229,155.481866 C197.223464,156.683233 189.740342,159.457848 190.422023,173.328554 C189.872185,180.289035 185.960647,212.874938 183.974134,224.387843 C181.351464,239.597672 175.754346,245.263372 160.016554,248.637487 L160.016554,248.637487 Z M228.120831,170.700564 C223.861062,172.678208 216.732083,174.161589 209.959612,174.479667 C202.479446,174.830263 198.671963,173.641903 197.776259,172.91115 C197.355307,164.267455 200.573339,163.364065 203.978199,162.408055 C204.513256,162.257293 205.035307,162.111261 205.53903,161.935076 C205.852379,162.189894 206.195289,162.442938 206.570716,162.690661 C212.582873,166.658956 223.306494,167.087002 238.444785,163.962383 C238.50036,163.950559 238.555935,163.939917 238.610919,163.928684 C236.569423,165.837746 233.075289,168.400111 228.120831,170.700564 L228.120831,170.700564 Z" fill="#FFFFFF"></path>
    </g>
  </symbol>
  <symbol fill="none" xmlns="http://www.w3.org/2000/svg" viewBox="0 0 32 32" id="react">
    <path d="M18.6789 15.9759C18.6789 14.5415 17.4796 13.3785 16 13.3785C14.5206 13.3785 13.3211 14.5415 13.3211 15.9759C13.3211 17.4105 14.5206 18.5734 16 18.5734C17.4796 18.5734 18.6789 17.4105 18.6789 15.9759Z" fill="#53C1DE"></path>
    <path fill-rule="evenodd" clip-rule="evenodd" d="M24.7004 11.1537C25.2661 8.92478 25.9772 4.79148 23.4704 3.39016C20.9753 1.99495 17.7284 4.66843 16.0139 6.27318C14.3044 4.68442 10.9663 2.02237 8.46163 3.42814C5.96751 4.82803 6.73664 8.8928 7.3149 11.1357C4.98831 11.7764 1 13.1564 1 15.9759C1 18.7874 4.98416 20.2888 7.29698 20.9289C6.71658 23.1842 5.98596 27.1909 8.48327 28.5877C10.9973 29.9932 14.325 27.3945 16.0554 25.7722C17.7809 27.3864 20.9966 30.0021 23.4922 28.6014C25.9956 27.1963 25.3436 23.1184 24.7653 20.8625C27.0073 20.221 31 18.7523 31 15.9759C31 13.1835 26.9903 11.7923 24.7004 11.1537ZM24.4162 19.667C24.0365 18.5016 23.524 17.2623 22.8971 15.9821C23.4955 14.7321 23.9881 13.5088 24.3572 12.3509C26.0359 12.8228 29.7185 13.9013 29.7185 15.9759C29.7185 18.07 26.1846 19.1587 24.4162 19.667ZM22.85 27.526C20.988 28.571 18.2221 26.0696 16.9478 24.8809C17.7932 23.9844 18.638 22.9422 19.4625 21.7849C20.9129 21.6602 22.283 21.4562 23.5256 21.1777C23.9326 22.7734 24.7202 26.4763 22.85 27.526ZM9.12362 27.5111C7.26143 26.47 8.11258 22.8946 8.53957 21.2333C9.76834 21.4969 11.1286 21.6865 12.5824 21.8008C13.4123 22.9332 14.2816 23.9741 15.1576 24.8857C14.0753 25.9008 10.9945 28.557 9.12362 27.5111ZM2.28149 15.9759C2.28149 13.874 5.94207 12.8033 7.65904 12.3326C8.03451 13.5165 8.52695 14.7544 9.12123 16.0062C8.51925 17.2766 8.01977 18.5341 7.64085 19.732C6.00369 19.2776 2.28149 18.0791 2.28149 15.9759ZM9.1037 4.50354C10.9735 3.45416 13.8747 6.00983 15.1159 7.16013C14.2444 8.06754 13.3831 9.1006 12.5603 10.2265C11.1494 10.3533 9.79875 10.5569 8.55709 10.8297C8.09125 9.02071 7.23592 5.55179 9.1037 4.50354ZM20.3793 11.5771C21.3365 11.6942 22.2536 11.85 23.1147 12.0406C22.8562 12.844 22.534 13.6841 22.1545 14.5453C21.6044 13.5333 21.0139 12.5416 20.3793 11.5771ZM16.0143 8.0481C16.6054 8.66897 17.1974 9.3623 17.7798 10.1145C16.5985 10.0603 15.4153 10.0601 14.234 10.1137C14.8169 9.36848 15.414 8.67618 16.0143 8.0481ZM9.8565 14.5444C9.48329 13.6862 9.16398 12.8424 8.90322 12.0275C9.75918 11.8418 10.672 11.69 11.623 11.5748C10.9866 12.5372 10.3971 13.5285 9.8565 14.5444ZM11.6503 20.4657C10.6679 20.3594 9.74126 20.2153 8.88556 20.0347C9.15044 19.2055 9.47678 18.3435 9.85796 17.4668C10.406 18.4933 11.0045 19.4942 11.6503 20.4657ZM16.0498 23.9915C15.4424 23.356 14.8365 22.6531 14.2448 21.8971C15.4328 21.9423 16.6231 21.9424 17.811 21.891C17.2268 22.6608 16.6369 23.3647 16.0498 23.9915ZM22.1667 17.4222C22.5677 18.3084 22.9057 19.1657 23.1742 19.9809C22.3043 20.1734 21.3652 20.3284 20.3757 20.4435C21.015 19.4607 21.6149 18.4536 22.1667 17.4222ZM18.7473 20.5941C16.9301 20.72 15.1016 20.7186 13.2838 20.6044C12.2509 19.1415 11.3314 17.603 10.5377 16.0058C11.3276 14.4119 12.2404 12.8764 13.2684 11.4158C15.0875 11.2825 16.9178 11.2821 18.7369 11.4166C19.7561 12.8771 20.6675 14.4086 21.4757 15.9881C20.6771 17.5812 19.7595 19.1198 18.7473 20.5941ZM22.8303 4.4666C24.7006 5.51254 23.8681 9.22726 23.4595 10.8426C22.2149 10.5641 20.8633 10.3569 19.4483 10.2281C18.6239 9.09004 17.7698 8.05518 16.9124 7.15949C18.1695 5.98441 20.9781 3.43089 22.8303 4.4666Z" fill="#53C1DE"></path>
  </symbol>
  <symbol version="1.1" xmlns="http://www.w3.org/2000/svg" xmlns:xlink="http://www.w3.org/1999/xlink" preserveAspectRatio="xMidYMid" viewBox="0 -32 256 256" id="sass">
    <g fill="#CD6799">
      <path d="M220.281239,110.513661 C211.374863,110.560291 203.634244,112.705282 197.152641,115.876138 C194.774499,111.166485 192.396357,106.969763 191.976685,103.892168 C191.510383,100.301639 190.95082,98.1100182 191.510383,93.8200364 C192.069945,89.5300546 194.587978,83.4214936 194.541348,82.9551913 C194.494718,82.4888889 193.981785,80.2972678 188.852459,80.2506375 C183.723133,80.2040073 179.29326,81.2298725 178.780328,82.5821494 C178.267395,83.9344262 177.28816,87.0120219 176.635337,90.182878 C175.749362,94.8459016 166.376685,111.492896 161.014208,120.21275 C159.288889,116.808743 157.796721,113.824408 157.47031,111.446266 C157.004007,107.855738 156.444444,105.664117 157.004007,101.374135 C157.56357,97.084153 160.081603,90.975592 160.034973,90.5092896 C159.988342,90.0429872 159.47541,87.8513661 154.346084,87.8047359 C149.216758,87.7581056 144.786885,88.7839709 144.273953,90.1362477 C143.76102,91.4885246 143.201457,94.6593807 142.128962,97.7369763 C141.056466,100.814572 128.606193,128.606193 125.342077,135.78725 C123.663388,139.471038 122.217851,142.408743 121.191985,144.413843 L121.191985,144.413843 C121.191985,144.413843 121.145355,144.553734 121.005464,144.786885 C120.11949,146.512204 119.606557,147.444809 119.606557,147.444809 C119.606557,147.444809 119.606557,147.444809 119.606557,147.491439 C118.907104,148.750455 118.16102,149.916211 117.787978,149.916211 C117.508197,149.916211 116.995264,146.558834 117.881239,141.989071 C119.746448,132.336612 124.176321,117.321676 124.12969,116.808743 C124.12969,116.528962 124.969035,113.917668 121.238616,112.565392 C117.601457,111.213115 116.295811,113.451366 115.969399,113.451366 C115.642987,113.451366 115.409836,114.24408 115.409836,114.24408 C115.409836,114.24408 119.466667,97.3639344 107.669217,97.3639344 C100.301639,97.3639344 90.1362477,105.430965 85.1001821,112.705282 C81.929326,114.430601 75.1679417,118.11439 67.940255,122.07796 C65.189071,123.616758 62.3446266,125.155556 59.6867031,126.601093 C59.5001821,126.414572 59.3136612,126.181421 59.1271403,125.9949 C44.8582878,110.746812 18.4655738,99.9752277 19.5846995,79.5045537 C20.0043716,72.0437158 22.5690346,52.4590164 70.2717668,28.6775956 C109.534426,9.32604736 140.776685,14.6885246 146.185792,26.579235 C153.926412,43.5526412 129.445537,75.0746812 88.8772313,79.6444444 C73.3959927,81.3697632 65.2823315,75.4010929 63.2306011,73.1628415 C61.0856102,70.8313297 60.7591985,70.691439 59.9664845,71.1577413 C58.6608379,71.8571949 59.5001821,73.9555556 59.9664845,75.1679417 C61.1788707,78.3387978 66.168306,83.9344262 74.6083789,86.6856102 C82.0692168,89.1103825 100.208379,90.4626594 122.17122,81.9759563 C146.745355,72.463388 165.957013,46.0240437 160.314754,23.8746812 C154.672495,1.3989071 117.368306,-6.01530055 82.0692168,6.52823315 C61.0856102,13.989071 38.3300546,25.7398907 21.9628415,41.0346084 C2.51803279,59.2204007 -0.559562842,75.028051 0.699453552,81.6495446 C5.22258652,105.151184 37.6306011,120.445902 50.5938069,131.777049 C49.9409836,132.150091 49.3347905,132.476503 48.8218579,132.756284 C42.340255,135.97377 17.6262295,148.890346 11.4710383,162.553005 C4.47650273,178.034244 12.5901639,189.13224 17.9526412,190.624408 C34.5996357,195.240801 51.7129326,186.940619 60.8990893,173.23133 C70.0852459,159.52204 68.9661202,141.70929 64.7227687,133.548998 C64.6761384,133.455738 64.6295082,133.362477 64.5362477,133.269217 C66.2149362,132.289982 67.940255,131.264117 69.6189435,130.284882 C72.9296903,128.326412 76.1938069,126.507832 78.9916211,125.015665 C77.4061931,129.352277 76.2404372,134.528233 75.6808743,141.989071 C74.9814208,150.755556 78.571949,162.133333 83.2816029,166.609836 C85.3799636,168.568306 87.8513661,168.614936 89.4367942,168.614936 C94.9391621,168.614936 97.4105647,164.045173 100.161749,158.636066 C103.519126,152.014572 106.550091,144.320583 106.550091,144.320583 C106.550091,144.320583 102.773042,165.117668 113.031694,165.117668 C116.762113,165.117668 120.539162,160.268124 122.217851,157.796721 L122.217851,157.843352 C122.217851,157.843352 122.311111,157.703461 122.497632,157.377049 C122.870674,156.770856 123.103825,156.397814 123.103825,156.397814 L123.103825,156.304554 C124.595993,153.69326 127.95337,147.77122 132.942805,137.93224 C139.377778,125.248816 145.579599,109.394536 145.579599,109.394536 C145.579599,109.394536 146.139162,113.264845 148.051002,119.699818 C149.170128,123.476867 151.501639,127.626958 153.366849,131.637158 C151.874681,133.735519 150.942077,134.901275 150.942077,134.901275 C150.942077,134.901275 150.942077,134.901275 150.988707,134.947905 C149.776321,136.533333 148.470674,138.258652 147.025137,139.937341 C141.942441,145.999271 135.88051,152.947177 135.041166,154.952277 C134.061931,157.330419 134.295082,159.055738 136.160291,160.454645 C137.512568,161.48051 139.937341,161.620401 142.408743,161.48051 C146.978506,161.154098 150.195993,160.034973 151.781421,159.335519 C154.252823,158.449545 157.143898,157.097268 159.848452,155.092168 C164.837887,151.408379 167.868852,146.139162 167.589071,139.191257 C167.44918,135.367577 166.190164,131.543898 164.651366,127.95337 C165.117668,127.300546 165.537341,126.647723 166.003643,125.9949 C173.884153,114.477231 179.992714,101.840437 179.992714,101.840437 C179.992714,101.840437 180.552277,105.710747 182.464117,112.145719 C183.396721,115.409836 185.308561,118.953734 186.98725,122.404372 C179.573042,128.419672 175.003279,135.414208 173.37122,139.983971 C170.433515,148.470674 172.718397,152.294353 177.055009,153.180328 C179.013479,153.6 181.811293,152.667395 183.863024,151.781421 C186.474317,150.942077 189.551913,149.496539 192.489617,147.351548 C197.479053,143.66776 202.281967,138.538434 202.002186,131.590528 C201.862295,128.419672 201.022951,125.295446 199.857195,122.264481 C206.152277,119.653188 214.265938,118.20765 224.617851,119.420036 C246.813843,122.03133 251.197086,135.88051 250.357741,141.70929 C249.518397,147.538069 244.855373,150.708925 243.316576,151.68816 C241.777778,152.667395 241.264845,152.993807 241.404736,153.69326 C241.591257,154.719126 242.337341,154.672495 243.642987,154.485974 C245.461566,154.159563 255.300546,149.776321 255.720219,139.051366 C256.419672,125.342077 243.363206,110.37377 220.281239,110.513661 L220.281239,110.513661 Z M49.0550091,168.241894 C41.6874317,176.262295 31.4287796,179.29326 26.9989071,176.728597 C22.242623,173.977413 24.1078324,162.133333 33.1540984,153.64663 C38.6564663,148.470674 45.7442623,143.66776 50.4539162,140.730055 C51.5264117,140.077231 53.1118397,139.144627 55.0236794,137.978871 C55.3500911,137.79235 55.536612,137.699089 55.536612,137.699089 L55.536612,137.699089 C55.9096539,137.465938 56.2826958,137.232787 56.6557377,136.999636 C59.9664845,149.123497 56.7956284,159.801821 49.0550091,168.241894 L49.0550091,168.241894 Z M102.679781,131.777049 C100.115118,138.025501 94.7526412,154.019672 91.4885246,153.133698 C88.6907104,152.387614 86.9653916,140.263752 90.9289617,128.279781 C92.9340619,122.264481 97.1774135,115.083424 99.648816,112.28561 C103.659016,107.809107 108.088889,106.31694 109.161384,108.135519 C110.513661,110.513661 104.265209,127.860109 102.679781,131.777049 L102.679781,131.777049 Z M146.931876,152.947177 C145.859381,153.50674 144.833515,153.879781 144.367213,153.6 C144.040801,153.413479 144.833515,152.667395 144.833515,152.667395 C144.833515,152.667395 150.382514,146.698725 152.574135,143.994171 C153.833151,142.408743 155.325319,140.543534 156.910747,138.445173 L156.910747,139.051366 C156.910747,146.185792 150.009472,150.988707 146.931876,152.947177 L146.931876,152.947177 Z M181.065209,145.159927 C180.272495,144.600364 180.412386,142.735155 183.07031,136.906375 C184.096175,134.621494 186.520947,130.797814 190.671038,127.114026 C191.137341,128.606193 191.463752,130.05173 191.417122,131.404007 C191.370492,140.403643 184.935519,143.76102 181.065209,145.159927 L181.065209,145.159927 Z"></path>
    </g>
  </symbol>
  <symbol version="1.1" xmlns="http://www.w3.org/2000/svg" xmlns:xlink="http://www.w3.org/1999/xlink" preserveAspectRatio="xMidYMid" viewBox="-26 0 308 308" id="svelte">
    <g>
      <path d="M239.681566,40.706757 C211.113272,-0.181889366 154.69089,-12.301439 113.894816,13.6910393 L42.2469062,59.3555354 C22.6760042,71.6680028 9.1958152,91.6538543 5.11196889,114.412133 C1.69420521,133.371174 4.6982178,152.928576 13.6483951,169.987905 C7.51549676,179.291145 3.33259428,189.7413 1.3524912,200.706787 C-2.77083771,223.902098 2.62286977,247.780539 16.3159596,266.951444 C44.8902975,307.843936 101.312954,319.958266 142.10271,293.967161 L213.75062,248.302665 C233.322905,235.991626 246.803553,216.005094 250.885557,193.246067 C254.302867,174.287249 251.30121,154.730228 242.355449,137.668922 C248.486748,128.365895 252.667894,117.916162 254.646134,106.951413 C258.772188,83.7560394 253.378243,59.8765465 239.682665,40.706757" fill="#FF3E00"></path>
      <path d="M106.888658,270.841265 C83.7871855,276.848065 59.3915045,267.805346 45.7864111,248.192566 C37.5477583,236.66102 34.3023491,222.296573 36.7830958,208.343155 C37.1989333,206.075414 37.7711933,203.839165 38.4957755,201.650433 L39.845476,197.534835 L43.5173097,200.231763 C51.9971301,206.462491 61.4784803,211.199728 71.5527203,214.239302 L74.2164003,215.047419 L73.9710252,217.705878 C73.6455499,221.487851 74.6696022,225.262925 76.8616703,228.361972 C80.9560313,234.269749 88.3011363,236.995968 95.2584831,235.190159 C96.8160691,234.773852 98.3006859,234.121384 99.6606718,233.25546 L171.331634,187.582718 C174.877468,185.349963 177.321139,181.729229 178.065299,177.605596 C178.808171,173.400048 177.830501,169.072361 175.351884,165.594581 C171.255076,159.685578 163.908134,156.9582 156.947927,158.762547 C155.392392,159.178888 153.90975,159.83088 152.551509,160.695872 L125.202489,178.130144 C120.705281,180.989558 115.797437,183.144784 110.64897,184.521162 C87.547692,190.527609 63.1523949,181.484801 49.5475471,161.872188 C41.3085624,150.340895 38.0631179,135.976391 40.5442317,122.023052 C43.0002744,108.333716 51.1099574,96.3125326 62.8835328,88.9089537 L134.548175,43.2323647 C139.047294,40.3682559 143.958644,38.21032 149.111311,36.8336525 C172.21244,30.8273594 196.607527,39.8700206 210.212459,59.4823515 C218.451112,71.013898 221.696522,85.3783452 219.215775,99.3317627 C218.798144,101.59911 218.225915,103.835236 217.503095,106.024485 L216.153395,110.140083 L212.483484,107.447276 C204.004261,101.212984 194.522,96.4735732 184.44615,93.4336926 L181.78247,92.6253012 L182.027845,89.9668419 C182.350522,86.1852063 181.326723,82.4111645 179.1372,79.3110228 C175.042839,73.4032457 167.697734,70.677026 160.740387,72.4828355 C159.182801,72.8991426 157.698185,73.5516104 156.338199,74.4175344 L84.6672364,120.0922 C81.1218886,122.323199 78.6795938,125.943704 77.9387928,130.066574 C77.1913232,134.271925 78.1673502,138.601163 80.6469865,142.078963 C84.7438467,147.987899 92.0907405,150.71526 99.0509435,148.910997 C100.608143,148.493836 102.092543,147.841423 103.452857,146.976298 L130.798305,129.548621 C135.293566,126.685437 140.201191,124.528302 145.350175,123.152382 C168.451453,117.145935 192.846751,126.188743 206.451598,145.801356 C214.690583,157.332649 217.936027,171.697153 215.454914,185.650492 C212.997261,199.340539 204.888162,211.362752 193.115613,218.769811 L121.450695,264.442553 C116.951576,267.306662 112.040226,269.464598 106.887559,270.841265" fill="#FFFFFF"></path>
    </g>
  </symbol>
  <symbol xmlns="http://www.w3.org/2000/svg" viewBox="0 0 32 32" id="tailwind">
   <g fill="#007ACC">
    <path d="M9,13.7q1.4-5.6,7-5.6c5.6,0,6.3,4.2,9.1,4.9q2.8.7,4.9-2.1-1.4,5.6-7,5.6c-5.6,0-6.3-4.2-9.1-4.9Q11.1,10.9,9,13.7ZM2,22.1q1.4-5.6,7-5.6c5.6,0,6.3,4.2,9.1,4.9q2.8.7,4.9-2.1-1.4,5.6-7,5.6c-5.6,0-6.3-4.2-9.1-4.9Q4.1,19.3,2,22.1Z"></path>
    </g>
  </symbol>
  <symbol version="1.1" xmlns="http://www.w3.org/2000/svg" xmlns:xlink="http://www.w3.org/1999/xlink" preserveAspectRatio="xMidYMid" viewBox="0 0 256 256" id="typescript">
    <g>
      <polygon fill="#007ACC" transform="translate(128.000000, 128.000000) scale(1, -1) translate(-128.000000, -128.000000) " points="0 128 0 0 128 0 256 0 256 128 256 256 128 256 0 256"></polygon>
      <path d="M146.658132,223.436863 L146.739401,212.953054 L130.079084,212.953054 L113.418767,212.953054 L113.418767,165.613371 L113.418767,118.273689 L101.63464,118.273689 L89.8505126,118.273689 L89.8505126,165.613371 L89.8505126,212.953054 L73.1901951,212.953054 L56.5298776,212.953054 L56.5298776,223.233689 C56.5298776,228.922577 56.6517824,233.676863 56.8143221,233.798768 C56.9362269,233.961308 77.2130522,234.042577 101.797179,234.001943 L146.536227,233.880038 L146.658132,223.436863 Z" fill="#FFFFFF" transform="translate(101.634640, 176.142993) rotate(-180.000000) translate(-101.634640, -176.142993) "></path>
      <path d="M206.566631,234.272145 C213.068219,232.646748 218.025679,229.761668 222.57679,225.048018 C224.933616,222.528653 228.428219,217.936907 228.712663,216.839764 C228.793933,216.514684 217.659965,209.037859 210.914568,204.852462 C210.670758,204.689922 209.69552,205.74643 208.598377,207.371827 C205.306949,212.166748 201.852981,214.239129 196.570441,214.604843 C188.809171,215.133097 183.811076,211.069605 183.851711,204.283573 C183.851711,202.292462 184.136155,201.114049 184.948854,199.488653 C186.65552,195.953414 189.825044,193.840399 199.7806,189.533097 C218.106949,181.649922 225.949489,176.448653 230.825679,169.053097 C236.270758,160.804208 237.489806,147.638494 233.792028,137.845478 C229.728536,127.199129 219.651076,119.966113 205.469489,117.568653 C201.080917,116.796589 190.678377,116.918494 185.964727,117.771827 C175.684092,119.600399 165.931711,124.679764 159.917743,131.343891 C157.560917,133.944526 152.969171,140.730557 153.253616,141.218176 C153.37552,141.380716 154.432028,142.030875 155.610441,142.721668 C156.748219,143.371827 161.05552,145.850557 165.119012,148.207383 L172.473933,152.474049 L174.01806,150.198494 C176.171711,146.907065 180.885362,142.396589 183.729806,140.893097 C191.897425,136.585795 203.112663,137.195319 208.639012,142.15278 C210.995838,144.30643 211.971076,146.541351 211.971076,149.83278 C211.971076,152.799129 211.605362,154.099446 210.061235,156.334367 C208.070123,159.178811 204.006631,161.576272 192.466314,166.574367 C179.259965,172.263256 173.571076,175.798494 168.369806,181.406113 C165.362822,184.656907 162.518377,189.858176 161.339965,194.206113 C160.364727,197.822621 160.120917,206.884208 160.892981,210.541351 C163.61552,223.300716 173.245996,232.199764 187.143139,234.841034 C191.653616,235.694367 202.137425,235.369287 206.566631,234.272145 Z" fill="#FFFFFF" transform="translate(194.578507, 176.190240) scale(1, -1) translate(-194.578507, -176.190240) "></path>
    </g>
  </symbol>
</svg>